<svg width="302" height="56" viewBox="0 0 302 56" fill="none" xmlns="http://www.w3.org/2000/svg">
<path fill-rule="evenodd" clip-rule="evenodd" d="M7.67979 26.61C5.70516 26.5183 3.73378 26.4157 1.76319 26.3047C1.37819 26.2828 1.04819 26.5779 1.02662 26.9636C1.00505 27.3494 1.30011 27.6804 1.68511 27.7023C3.45902 27.8005 5.23346 27.8932 7.00701 27.9801C7.10399 28.051 7.29991 28.1564 7.63878 28.2246C18.201 30.2815 29.7131 29.3028 40.5897 28.8829C50.772 28.9656 60.9639 28.8975 71.1608 28.7484C69.9439 28.8287 68.7276 28.9061 67.5107 28.9779C67.2575 28.9936 66.6013 29.0363 66.5108 29.056C65.9924 29.1789 65.9654 29.6203 65.964 29.7326C65.9632 29.7887 65.985 30.4089 66.6796 30.4485C74.1413 30.8672 81.6275 30.4228 89.0794 30.0399C91.8513 29.8969 94.6207 29.7481 97.392 29.5939C98.3557 29.5378 100.861 29.4936 101.207 29.4389C101.58 29.3782 101.732 29.1479 101.792 28.9681C107.801 28.7819 113.814 28.6411 119.828 28.5424C121.004 28.5764 122.178 28.613 123.352 28.6496C136.147 29.0607 148.938 29.5191 161.734 29.8741C154.596 29.9913 147.439 30.1349 140.306 30.4157C138.845 30.4731 137.385 30.57 135.925 30.6387C135.127 30.6737 133.067 30.6415 132.774 30.7265C132.338 30.8572 132.26 31.1871 132.243 31.3513C132.234 31.4516 132.249 32.0121 132.971 32.1723C146.36 35.1536 160.084 36.1093 173.719 37.2255C177.306 37.5184 180.892 37.8252 184.476 38.143C175.893 38.0354 167.237 37.4658 158.678 37.0037C158.603 36.9292 158.494 36.8572 158.335 36.8059C158.102 36.7279 157.378 36.6153 156.055 36.4777C155.771 36.4483 155.508 36.5951 155.375 36.83C153.341 36.73 151.313 36.6389 149.293 36.5655C142.679 36.3243 136.058 36.3184 129.445 36.1081L127.948 36.0471L127.636 36.0348C126.49 35.9811 125.088 35.9092 124.157 35.8616C123.62 35.8311 122.221 35.7847 122.027 35.7835C121.443 35.7851 121.327 36.3222 121.322 36.347C121.319 36.3608 121.304 37.1489 122.102 37.1925C122.636 37.2227 124.652 37.3099 127.479 37.4278C128.189 37.4604 128.812 37.4877 129.184 37.4999L129.47 37.5098C138.51 37.8736 152.997 38.4033 157.106 38.3207C170.446 39.0158 184.047 40.0558 197.264 39.2924C197.698 39.2655 197.891 39.1319 197.93 39.1017C198.139 38.9274 198.188 38.7241 198.185 38.5468C198.184 38.4342 198.141 37.9779 197.597 37.8568C197.215 37.7705 194.445 37.6355 193.38 37.5389C186.866 36.9474 180.352 36.3642 173.833 35.8312C162.078 34.8683 150.257 34.0312 138.643 31.8956C139.215 31.8648 139.788 31.8368 140.361 31.8144C147.593 31.5289 154.85 31.3834 162.087 31.267C184.561 30.9046 207.485 32.9613 229.882 31.7207C230.341 31.6961 230.55 31.5639 230.59 31.534C230.812 31.358 230.861 31.1462 230.858 30.9661C230.856 30.8563 230.808 30.3939 230.254 30.2747C229.797 30.1758 226.485 30.0267 225.212 29.919C220.127 29.489 215.038 29.0559 209.944 28.7459C201.536 28.236 193.107 27.8309 184.676 27.5436C183.961 27.3588 183.22 27.1857 182.454 27.0242C188.143 27.0947 193.827 27.2126 199.508 27.3947C222.793 28.1337 246.062 29.2503 269.321 30.5376C278.954 31.072 288.708 32.1487 298.357 32.2744C298.699 32.2782 299.453 32.3712 299.826 32.3752C300.039 32.3782 300.197 32.3451 300.272 32.3184C300.586 32.2017 300.694 31.9785 300.733 31.8023C300.765 31.6649 300.833 31.2132 300.266 30.9411C288.076 25.0879 268.401 26.3298 255.568 25.3925C203.162 21.5658 150.612 21.3755 98.1049 22.6024C77.1116 23.0919 56.1706 23.6002 35.2007 24.7549C27.759 25.1641 20.3112 25.452 12.8965 26.229C11.9287 26.3325 9.88682 26.4059 8.57698 26.5083C8.22431 26.5372 7.91701 26.5731 7.67979 26.61ZM296.324 30.8342C284.248 26.6269 267.04 27.6328 255.466 26.7879C203.106 22.9654 150.6 22.7736 98.1378 23.9991C77.1592 24.4899 56.2332 24.9969 35.2775 26.153C29.9467 26.4446 24.6121 26.6769 19.2898 27.0705C26.3754 27.294 33.4665 27.4252 40.5699 27.4846C42.0502 27.4261 43.52 27.3779 44.9738 27.3507C62.8302 27.0095 80.7257 26.6944 98.6082 26.7995C104.529 26.6584 110.45 26.5089 116.375 26.3627C127.858 25.6846 143.533 24.707 157.923 24.8877C162.873 24.951 167.671 25.1518 172.097 25.5512C181.26 25.5724 190.41 25.7049 199.552 25.9967C222.849 26.7339 246.127 27.8544 269.4 29.1429C278.33 29.6369 287.362 30.6013 296.324 30.8342ZM184.495 28.9372C179.093 28.7558 173.691 28.625 168.295 28.5453C165.893 28.512 163.491 28.4816 161.088 28.4566C162.399 28.4948 163.711 28.5302 165.023 28.5628C171.178 28.7247 177.348 28.8963 183.507 28.9405C183.814 28.941 184.223 28.9624 184.682 28.9884L184.504 28.9408L184.495 28.9372ZM217.754 30.7032C215.124 30.4969 212.493 30.3018 209.86 30.143C203.026 29.7295 196.178 29.3821 189.327 29.1131C189.488 29.2237 189.572 29.3271 189.61 29.3924C189.721 29.577 189.734 29.7552 189.703 29.9153C189.683 30.0146 189.642 30.1317 189.554 30.2415C198.968 30.5137 208.391 30.8065 217.754 30.7032ZM175.263 27.277C174.234 27.1556 173.179 27.0458 172.101 26.948C166.745 26.9367 161.387 26.9589 156.034 27.0096C160.126 27.0434 164.222 27.0887 168.315 27.1479C170.63 27.1815 172.946 27.2236 175.263 27.277Z" fill="#C7F6B4"/>
</svg>
