<svg width="91" height="56" viewBox="0 0 91 56" fill="none" xmlns="http://www.w3.org/2000/svg">
<path fill-rule="evenodd" clip-rule="evenodd" d="M26.4107 52.2493C18.4861 52.6974 10.3691 52.5787 2.87377 55.5314C2.42695 55.7056 1.92223 55.4893 1.74418 55.0435C1.56961 54.5975 1.78646 54.0938 2.23317 53.916C9.90376 50.8951 18.2039 50.9732 26.3127 50.5156C26.7921 50.4861 27.2043 50.8549 27.2302 51.3334C27.2597 51.8118 26.8901 52.2198 26.4107 52.2493Z" fill="#34A00A"/>
<path fill-rule="evenodd" clip-rule="evenodd" d="M26.75 40.7339C24.2043 38.544 21.4511 36.9309 18.1624 36.1938C17.6926 36.0888 17.3991 35.6242 17.5023 35.1567C17.6089 34.6892 18.0762 34.3951 18.5425 34.5002C22.1187 35.3012 25.1161 37.0388 27.8838 39.4185C28.2489 39.7311 28.2911 40.2796 27.9757 40.6428C27.6638 41.0055 27.1117 41.0466 26.75 40.7339Z" fill="#34A00A"/>
<path fill-rule="evenodd" clip-rule="evenodd" d="M32.8226 15.7263C31.5633 11.8852 29.2327 8.92409 25.7404 6.84443C25.3287 6.59899 25.1931 6.06566 25.4408 5.65433C25.685 5.2431 26.2201 5.10832 26.6318 5.35375C30.4969 7.6565 33.0813 10.9331 34.4758 15.186C34.6263 15.641 34.3742 16.132 33.9196 16.2809C33.4615 16.4302 32.9696 16.1814 32.8226 15.7263Z" fill="#34A00A"/>
<path fill-rule="evenodd" clip-rule="evenodd" d="M71.7151 9.19668C72.4153 9.96702 73.048 10.801 73.592 11.6932C73.8346 12.0903 74.2658 12.9371 74.3524 13.6725C74.4474 14.4558 74.2012 15.1273 73.5241 15.4988C72.6247 15.9913 71.8929 15.9668 71.3206 15.705C70.7695 15.4537 70.3282 14.939 70.0375 14.2391C69.4824 12.9013 69.4918 10.8289 69.7212 9.63898C68.9774 8.92112 68.1663 8.27455 67.3021 7.70441C60.8645 3.4582 51.6865 5.3987 44.7991 12.2834C42.3887 14.6939 41.3514 19.6255 40.9003 24.9247C40.1969 33.1758 41.0476 42.3383 41.2114 45.0255C41.2503 45.6891 41.2005 46.0853 41.1683 46.1652C41.0175 46.5578 40.7321 46.6678 40.5317 46.7125C40.2414 46.774 40.0066 46.7261 39.8157 46.635C39.5576 46.51 39.3413 46.2822 39.2322 45.9234C39.1736 45.7252 39.1507 45.4474 39.148 45.1505C39.1483 44.9445 39.1827 44.7182 39.1362 44.5721C38.8344 43.6364 38.4776 42.7246 38.1276 41.806C36.9589 38.7179 35.4836 35.8364 33.8555 32.9633C28.683 23.834 23.6535 14.1738 15.4375 7.35703C15.0691 7.05113 15.0164 6.5033 15.3247 6.13481C15.6295 5.76643 16.1778 5.71598 16.5497 6.02211C24.9302 12.9735 30.0939 22.7985 35.3696 32.1086C36.7541 34.5526 38.031 37.0036 39.1099 39.5757C38.8596 34.972 38.6909 28.5938 39.3527 22.924C39.941 17.8816 41.2261 13.4004 43.569 11.0571C51.1138 3.51506 61.2116 1.60447 68.261 6.25637C69.015 6.75436 69.7359 7.30553 70.4098 7.90686C73.8045 1.29215 81.4387 -1.56259 88.3612 1.3239C88.8058 1.50852 89.0137 2.01728 88.8297 2.45921C88.6421 2.90125 88.1338 3.11019 87.6893 2.92557C81.4513 0.324645 74.5611 3.04996 71.7151 9.19668ZM71.2815 11.3884C71.576 11.7763 71.8501 12.1794 72.1073 12.5969C72.2434 12.8211 72.4801 13.2528 72.588 13.6794C72.6121 13.7793 72.6207 13.9367 72.623 14.0096C72.3869 14.1354 72.2011 14.1984 72.0456 14.1267C71.8513 14.0385 71.7467 13.8195 71.6448 13.5745C71.3882 12.9596 71.2849 12.1369 71.2815 11.3884Z" fill="#34A00A"/>
</svg>
