<svg width="1001" height="1000" viewBox="0 0 1001 1000" fill="none" xmlns="http://www.w3.org/2000/svg">
<path d="M500.499 953.44C747.26 953.44 947.299 844.654 947.299 710.46C947.299 576.266 747.26 467.48 500.499 467.48C253.738 467.48 53.6992 576.266 53.6992 710.46C53.6992 844.654 253.738 953.44 500.499 953.44Z" fill="#E9EAEC"/>
<path d="M500.504 697.74C537.683 697.74 567.824 680.333 567.824 658.86C567.824 637.387 537.683 619.98 500.504 619.98C463.324 619.98 433.184 637.387 433.184 658.86C433.184 680.333 463.324 697.74 500.504 697.74Z" fill="#E0E0E0"/>
<path d="M751.561 801.64C810.335 801.64 857.981 774.132 857.981 740.2C857.981 706.268 810.335 678.76 751.561 678.76C692.786 678.76 645.141 706.268 645.141 740.2C645.141 774.132 692.786 801.64 751.561 801.64Z" fill="#E0E0E0"/>
<path d="M229.342 808.28C288.116 808.28 335.762 780.772 335.762 746.84C335.762 712.907 288.116 685.4 229.342 685.4C170.568 685.4 122.922 712.907 122.922 746.84C122.922 780.772 170.568 808.28 229.342 808.28Z" fill="#E0E0E0"/>
<path d="M910.499 696.54L890.399 688.32C887.873 670.945 886.417 653.432 886.039 635.88C886.039 603.04 906.499 562.88 932.459 569.6C958.419 576.32 925.139 613.06 919.739 641.44C914.339 669.82 910.499 696.54 910.499 696.54Z" fill="#34A00A"/>
<path opacity="0.3" d="M910.499 696.54L890.399 688.32C887.873 670.945 886.417 653.432 886.039 635.88C886.039 603.04 906.499 562.88 932.459 569.6C958.419 576.32 925.139 613.06 919.739 641.44C914.339 669.82 910.499 696.54 910.499 696.54Z" fill="black"/>
<path d="M900.759 693.999C900.979 693.969 901.178 693.854 901.313 693.678C901.448 693.502 901.508 693.279 901.479 693.059C891.899 621.059 924.279 581.059 924.599 580.719C924.742 580.547 924.811 580.325 924.791 580.101C924.77 579.878 924.662 579.673 924.489 579.529C924.317 579.386 924.095 579.317 923.871 579.338C923.648 579.358 923.442 579.467 923.299 579.639C922.979 580.039 890.119 620.519 899.799 693.279C899.814 693.39 899.851 693.497 899.907 693.593C899.964 693.69 900.039 693.774 900.128 693.841C900.217 693.908 900.319 693.957 900.428 693.984C900.536 694.011 900.649 694.016 900.759 693.999Z" fill="white"/>
<path d="M920.819 701.34L910.319 696.58C907.175 680.403 907.653 663.73 911.719 647.76C918.459 621.88 940.899 605.92 952.199 608.56C966.019 611.78 967.359 624.56 963.319 633.46C958.499 644 925.259 672.54 920.819 701.34Z" fill="#34A00A"/>
<path opacity="0.1" d="M920.819 701.34L910.319 696.58C907.175 680.403 907.653 663.73 911.719 647.76C918.459 621.88 940.899 605.92 952.199 608.56C966.019 611.78 967.359 624.56 963.319 633.46C958.499 644 925.259 672.54 920.819 701.34Z" fill="black"/>
<path d="M915.353 699.679C915.578 699.654 915.784 699.541 915.926 699.365C916.069 699.19 916.136 698.965 916.113 698.739C911.393 653.059 951.253 617.939 951.673 617.599C951.825 617.437 951.91 617.222 951.91 616.999C951.91 616.777 951.825 616.562 951.673 616.399C951.595 616.32 951.502 616.256 951.399 616.213C951.296 616.17 951.185 616.147 951.073 616.147C950.962 616.147 950.851 616.17 950.748 616.213C950.645 616.256 950.552 616.32 950.473 616.399C950.053 616.759 909.553 652.399 914.333 698.999C914.382 699.223 914.515 699.419 914.706 699.546C914.896 699.673 915.128 699.721 915.353 699.679Z" fill="white"/>
<path d="M112.502 678.14L126.302 670.26C126.302 670.26 132.902 633.84 127.962 602.52C121.002 558.52 91.0218 543.3 80.1418 547.68C69.2618 552.06 66.7018 565.1 86.3618 590.54C97.9618 605.54 112.882 637.28 112.502 678.14Z" fill="#34A00A"/>
<g opacity="0.15">
<path d="M112.502 678.14L126.302 670.26C126.302 670.26 132.902 633.84 127.962 602.52C121.002 558.52 91.0218 543.3 80.1418 547.68C69.2618 552.06 66.7018 565.1 86.3618 590.54C97.9618 605.54 112.882 637.28 112.502 678.14Z" fill="black"/>
</g>
<path d="M117.5 660.659H117.36C117.234 660.642 117.112 660.6 117.002 660.535C116.891 660.47 116.795 660.384 116.719 660.282C116.643 660.179 116.588 660.063 116.557 659.939C116.526 659.815 116.521 659.686 116.54 659.559C122.22 618.339 105.66 573.179 87.0203 554.979C86.9046 554.895 86.8083 554.787 86.738 554.662C86.6678 554.537 86.6251 554.399 86.613 554.256C86.6008 554.113 86.6195 553.97 86.6677 553.835C86.7158 553.7 86.7924 553.577 86.8922 553.474C86.992 553.372 87.1128 553.292 87.2462 553.24C87.3796 553.188 87.5227 553.165 87.6657 553.173C87.8086 553.181 87.9482 553.22 88.075 553.286C88.2017 553.353 88.3127 553.446 88.4003 553.559C107.36 571.999 124.26 617.999 118.5 659.799C118.466 660.04 118.346 660.259 118.162 660.418C117.978 660.576 117.743 660.662 117.5 660.659Z" fill="white"/>
<path d="M74.2604 700.24C72.0804 701.48 67.6004 698.76 65.8804 697.6C62.9301 695.566 60.5482 692.812 58.9604 689.6C57.1872 685.972 56.5861 681.884 57.2404 677.9C57.5866 675.794 58.0812 673.715 58.7204 671.68L60.4604 665.68C61.1459 663.757 61.445 661.718 61.3404 659.68C60.8204 655.54 57.1404 652.66 53.8204 650.16C50.1204 647.4 46.3004 643.76 46.3204 638.78C46.5784 634.921 48.1203 631.26 50.7004 628.38C53.0604 625.36 55.8804 622.7 58.0404 619.52C59.7335 617.288 60.6026 614.539 60.5004 611.74C60.2713 610.036 59.6998 608.396 58.8204 606.92C56.7971 603.844 55.0311 600.606 53.5404 597.24C52.3204 593.76 52.5004 589.44 55.2204 586.94C56.4308 586.035 57.8098 585.382 59.2764 585.018C60.7429 584.653 62.2675 584.586 63.7604 584.82C66.6002 585.154 69.3316 586.11 71.7604 587.62C79.6604 592 84.1604 601.36 92.5404 604.74C95.8582 605.773 99.2383 606.595 102.66 607.2C104.378 607.518 106.01 608.193 107.45 609.182C108.89 610.171 110.106 611.451 111.02 612.94C114.1 619.08 108.4 626.64 110.56 633.16C112.56 638.92 118.08 641.16 121.22 646.34C122.508 648.63 123.026 651.273 122.7 653.88C122.421 658.29 121.344 662.614 119.52 666.64C117.469 670.642 115.122 674.486 112.5 678.14C112.38 678.28 74.6004 700 74.2604 700.24Z" fill="#34A00A"/>
<path d="M96.6414 688.32C96.5101 688.315 96.381 688.284 96.2617 688.229C96.1423 688.174 96.035 688.095 95.9458 687.999C95.8566 687.902 95.7874 687.789 95.742 687.666C95.6967 687.542 95.6761 687.411 95.6814 687.28C97.3014 648.28 78.9214 605.28 65.5614 592.68C65.3794 592.496 65.2773 592.248 65.2773 591.99C65.2773 591.731 65.3794 591.483 65.5614 591.3C65.7484 591.117 65.9997 591.014 66.2614 591.014C66.5232 591.014 66.7745 591.117 66.9614 591.3C80.5014 604 99.2814 647.8 97.6214 687.38C97.6111 687.633 97.5033 687.872 97.3206 688.047C97.1379 688.222 96.8946 688.32 96.6414 688.32Z" fill="white"/>
<path d="M90.7992 642.22H90.4992C81.2584 639.678 71.77 638.143 62.1992 637.64C61.934 637.64 61.6796 637.534 61.4921 637.347C61.3046 637.159 61.1992 636.905 61.1992 636.64C61.1992 636.374 61.3046 636.12 61.4921 635.933C61.6796 635.745 61.934 635.64 62.1992 635.64C71.9396 636.146 81.5962 637.708 90.9992 640.3C91.1227 640.336 91.2378 640.397 91.3378 640.478C91.4378 640.559 91.5209 640.659 91.5822 640.773C91.6435 640.886 91.6818 641.01 91.6951 641.139C91.7083 641.267 91.6961 641.396 91.6592 641.52C91.6009 641.708 91.4882 641.875 91.3351 642C91.1821 642.124 90.9956 642.201 90.7992 642.22Z" fill="white"/>
<path d="M804.163 727.521L785.523 725.381L780.703 687.821L803.483 694.581L804.163 727.521Z" fill="#B16668"/>
<path d="M763.323 758.16C763.054 758.9 762.943 759.689 762.998 760.474C763.053 761.26 763.273 762.025 763.643 762.72C765.643 765.04 770.803 767.76 777.843 768.26C784.583 768.74 790.583 767.84 794.523 765.34C796.236 764.455 797.703 763.158 798.792 761.566C799.881 759.975 800.558 758.138 800.763 756.22C801.143 752.4 800.763 748.7 802.543 745.76C804.323 742.82 806.903 739.96 807.483 738.48C808.175 735.926 808.175 733.234 807.483 730.68L763.323 758.16Z" fill="#263238"/>
<path d="M781.743 724.721C781.683 726.17 781.421 727.604 780.963 728.981C779.932 731.942 778.549 734.769 776.843 737.401C776.006 738.798 775.07 740.135 774.043 741.401C772.043 743.821 769.483 745.821 767.323 748.141C765.032 750.328 763.563 753.238 763.163 756.381C762.883 761.661 771.283 763.461 775.703 764.241C780.47 765.074 785.364 764.828 790.023 763.521C792.47 762.883 794.681 761.554 796.391 759.691C798.101 757.829 799.237 755.513 799.663 753.021C799.923 751.541 799.823 750.041 800.003 748.581C800.585 745.209 801.994 742.034 804.103 739.341C805.328 737.786 806.381 736.103 807.243 734.321C808.623 731.061 807.523 727.381 806.643 724.141C805.883 721.321 804.963 718.141 803.963 718.361C803.963 719.821 803.963 720.021 802.983 721.001C802.003 721.981 801.623 724.141 800.223 725.241C800.67 724.022 800.998 722.762 801.203 721.481C801.29 720.967 801.183 720.44 800.903 720.001C800.439 719.585 799.884 719.284 799.283 719.121C797.203 718.425 795.059 717.936 792.883 717.661C789.913 717.321 786.913 717.321 783.943 717.661C783.324 717.771 782.765 718.097 782.363 718.581C782.003 719.112 781.808 719.739 781.803 720.381C781.703 721.141 781.783 723.321 781.743 724.721Z" fill="#455A64"/>
<path d="M776.121 738.52C778.121 737.04 785.181 737.02 787.581 737.28C790.028 737.489 792.381 738.315 794.421 739.68C794.72 739.893 795.085 739.994 795.45 739.964C795.816 739.935 796.16 739.778 796.421 739.52C796.573 739.37 796.69 739.189 796.765 738.989C796.84 738.79 796.871 738.576 796.856 738.363C796.841 738.151 796.78 737.944 796.677 737.757C796.574 737.57 796.433 737.407 796.261 737.28C794.02 735.626 791.359 734.635 788.581 734.42C785.117 734.166 781.633 734.368 778.221 735.02C778.221 735.02 775.541 736.76 776.121 738.52Z" fill="#F5F5F5"/>
<path d="M771.602 744.001C774.082 742.541 781.602 742.741 784.022 743.001C786.42 743.247 788.711 744.123 790.662 745.541C790.962 745.75 791.325 745.848 791.69 745.819C792.055 745.79 792.398 745.635 792.662 745.381C792.813 745.231 792.93 745.05 793.005 744.85C793.08 744.65 793.111 744.437 793.096 744.224C793.081 744.011 793.02 743.804 792.917 743.617C792.815 743.43 792.673 743.268 792.502 743.141C789.221 741.441 785.641 740.395 781.962 740.061C775.962 739.641 774.502 740.841 774.502 740.841C773.813 741.118 773.196 741.546 772.694 742.093C772.192 742.639 771.819 743.291 771.602 744.001Z" fill="#F5F5F5"/>
<path d="M790.942 728.76C787.558 728.373 784.133 728.583 780.822 729.38C779.782 729.96 779.082 731.62 779.762 732.04C782.783 731.225 785.919 730.914 789.042 731.12C791.259 731.342 793.423 731.937 795.442 732.88C795.962 733.12 796.562 733.42 797.082 733.72C797.249 733.826 797.437 733.896 797.633 733.923C797.829 733.95 798.029 733.934 798.219 733.878C798.409 733.821 798.584 733.724 798.733 733.593C798.882 733.462 799.001 733.301 799.082 733.12C799.224 732.825 799.252 732.488 799.159 732.174C799.067 731.86 798.861 731.591 798.582 731.42C796.254 729.998 793.649 729.091 790.942 728.76Z" fill="#F5F5F5"/>
<path d="M734.661 710.44L716.941 705.5V669.68L738.921 670.64L734.661 710.44Z" fill="#B16668"/>
<path d="M679.501 729.62C679.001 731.165 679.094 732.84 679.761 734.32C680.421 735.68 687.601 739.74 697.281 739.08C704.451 738.566 711.355 736.15 717.281 732.08C720.961 729.64 724.801 729.18 729.601 728.92C734.401 728.66 740.681 726.24 741.741 724C742.281 721.995 742.225 719.875 741.581 717.9L679.501 729.62Z" fill="#263238"/>
<path d="M718.502 699.421L717.742 699.261C717.321 699.161 716.883 699.161 716.462 699.261C715.997 699.414 715.582 699.69 715.262 700.061C714.317 701.278 713.493 702.584 712.802 703.961C710.802 707.261 706.502 709.961 701.862 712.501C698.702 714.201 695.602 715.521 692.342 716.981C689.082 718.441 684.582 719.401 681.982 721.161C678.182 723.721 677.682 730.141 681.982 732.681C685.702 734.881 695.542 737.261 705.842 734.341C711.442 732.741 717.682 726.761 725.042 726.181C729.722 725.801 738.582 724.501 741.602 720.941C742.722 719.361 741.222 714.361 740.002 710.041C738.662 705.321 737.402 698.041 735.842 698.381C735.855 698.718 735.788 699.054 735.645 699.36C735.502 699.666 735.289 699.934 735.022 700.141C734.442 700.741 733.662 701.121 733.022 701.661C731.93 702.735 731.048 704.003 730.422 705.401C730.167 706.023 729.699 706.533 729.102 706.841C728.302 707.121 727.722 706.641 727.102 706.321C726.223 705.918 725.229 705.847 724.302 706.121C724.399 705.183 724.566 704.254 724.802 703.341C724.891 703.054 724.891 702.747 724.802 702.461C724.688 702.17 724.476 701.929 724.202 701.781C722.488 700.604 720.546 699.8 718.502 699.421Z" fill="#455A64"/>
<path d="M706.301 709.881C706.635 709.234 707.128 708.682 707.733 708.276C708.338 707.871 709.035 707.625 709.761 707.561C711.881 707.161 715.641 708.741 717.981 710.661C718.204 710.839 718.38 711.07 718.493 711.332C718.606 711.594 718.653 711.88 718.629 712.165C718.605 712.449 718.512 712.724 718.357 712.964C718.202 713.204 717.99 713.402 717.741 713.541C717.427 713.719 717.064 713.793 716.705 713.754C716.346 713.714 716.009 713.563 715.741 713.321C713.159 710.993 709.775 709.76 706.301 709.881Z" fill="#F5F5F5"/>
<path d="M699.684 713.581C700.148 712.925 700.762 712.39 701.476 712.022C702.189 711.653 702.98 711.46 703.784 711.461C707.072 711.605 710.23 712.788 712.804 714.841C713.014 715.016 713.179 715.24 713.285 715.493C713.39 715.746 713.433 716.02 713.41 716.293C713.386 716.567 713.297 716.83 713.149 717.061C713.002 717.292 712.801 717.484 712.564 717.621C712.252 717.808 711.888 717.888 711.526 717.848C711.165 717.809 710.827 717.651 710.564 717.401C709.149 715.994 707.438 714.922 705.556 714.261C703.673 713.6 701.667 713.368 699.684 713.581Z" fill="#F5F5F5"/>
<path d="M692.5 716.9C693.028 716.297 693.68 715.814 694.412 715.486C695.144 715.158 695.938 714.992 696.74 715C699.906 715.195 702.93 716.385 705.38 718.4C705.591 718.578 705.755 718.803 705.861 719.058C705.966 719.312 706.009 719.588 705.985 719.862C705.962 720.137 705.873 720.402 705.726 720.634C705.579 720.867 705.378 721.061 705.14 721.2C704.829 721.388 704.464 721.468 704.103 721.428C703.742 721.388 703.403 721.231 703.14 720.98C701.803 719.523 700.146 718.397 698.3 717.689C696.454 716.981 694.468 716.711 692.5 716.9Z" fill="#F5F5F5"/>
<path d="M800.083 476.74C801.303 513.68 801.383 593.68 801.383 593.68C801.763 598.28 802.163 606.44 802.503 623C803.003 647 804.163 706.26 804.163 706.26C804.163 706.26 792.703 711.64 782.163 707.26C782.163 707.26 767.523 623.94 764.523 600.18C761.903 579.44 756.883 530.8 756.883 530.8L749.963 592.54C749.963 592.54 749.963 608.54 749.023 622.66C748.243 633.66 737.563 690.32 737.563 690.32C730.587 692.173 723.22 691.93 716.383 689.62C716.383 689.62 715.423 602.64 715.223 592.54C715.003 581.06 717.963 456.94 717.963 456.94L800.083 476.74Z" fill="#455A64"/>
<path d="M756.92 530.8L754.281 509.86C745.755 507.681 737.693 503.982 730.48 498.94C730.48 498.94 735.56 505.74 750.48 512.94L753.841 531.94L750.04 592.54L756.92 530.8Z" fill="#37474F"/>
<path d="M717.022 373.08C711.622 380.16 683.842 418.28 683.842 418.28L658.182 398.4C652.182 393.7 650.402 387.54 646.642 383.28C642.882 379.02 638.762 378 634.542 374.44C630.322 370.88 628.702 368.18 627.262 371.22C625.822 374.26 630.482 379.56 631.262 380.84C632.042 382.12 636.862 385.18 630.502 384.84C624.142 384.5 611.902 377.24 608.942 375.9C605.982 374.56 605.902 378.22 607.302 380.62C608.702 383.02 608.002 389.7 609.642 394C611.282 398.3 614.162 400.94 620.022 403.84C625.482 406.56 638.762 408.26 643.082 410.98C652.562 420.7 670.442 438.84 674.962 442.2C681.182 446.82 687.202 451.08 696.722 441.92C706.242 432.76 733.822 396.82 733.822 396.82L739.522 362.64C730.162 362.3 723.542 364.54 717.022 373.08Z" fill="#B16668"/>
<path d="M683.844 418.281C687.364 420.881 691.024 426.721 691.364 429.341C691.323 426.858 690.768 424.411 689.736 422.153C688.703 419.895 687.215 417.876 685.364 416.221L683.844 418.281Z" fill="#9A4A4D"/>
<path d="M741.721 361.8C741.721 361.8 728.521 361.64 722.721 365.7C716.921 369.76 712.621 375.7 703.201 389.4C694.941 401.4 690.941 407.16 690.941 407.16C696.349 415.158 704.222 421.17 713.361 424.28L738.001 393.76L741.721 361.8Z" fill="#00004C"/>
<path d="M767.261 361.161C774.741 361.881 785.261 361.961 792.661 362.721C797.801 364.841 807.721 373.481 806.981 379.641C804.221 402.661 798.641 440.401 798.641 440.401L800.481 480.401C790.181 490.681 741.981 494.701 717.141 478.261C717.141 478.261 717.941 406.421 719.661 394.261C722.721 372.481 725.401 364.401 736.641 362.481C747.881 360.561 767.261 361.161 767.261 361.161Z" fill="#00007E"/>
<path d="M809.62 373.66C815.02 380.74 842.82 418.86 842.82 418.86L868.5 398.98C874.5 394.26 876.28 388.1 880.04 383.86C883.8 379.62 887.92 378.58 892.14 375.02C896.36 371.46 897.98 368.76 899.42 371.78C900.86 374.8 896.2 380.14 895.42 381.42C894.64 382.7 889.82 385.76 896.18 385.42C902.54 385.08 914.76 377.8 917.74 376.46C920.72 375.12 920.76 378.78 919.38 381.18C918 383.58 918.66 390.28 917.04 394.58C915.42 398.88 912.52 401.5 906.66 404.42C901.2 407.14 887.92 408.84 883.6 411.56C874.12 421.26 856.24 439.42 851.72 442.76C845.5 447.38 839.48 451.64 829.96 442.5C820.44 433.36 798.68 404.9 798.68 404.9L787.16 363.22C796.5 362.88 803.12 365.12 809.62 373.66Z" fill="#B16668"/>
<path d="M842.821 418.861C839.301 421.461 835.641 427.301 835.301 429.921C835.339 427.435 835.892 424.984 836.925 422.722C837.958 420.461 839.447 418.438 841.301 416.781L842.821 418.861Z" fill="#9A4A4D"/>
<path d="M785.84 362.22C785.84 362.22 797.7 361.48 803.94 366.22C809.56 370.54 813.94 376.22 823.46 389.921C831.72 401.921 835.72 407.68 835.72 407.68C830.302 415.676 822.424 421.687 813.28 424.8L796.5 404.12C787.76 393.04 779.1 376.18 785.84 362.22Z" fill="#00004C"/>
<path d="M769.122 307.001C769.161 311.589 767.839 316.086 765.323 319.923C762.806 323.76 759.209 326.764 754.985 328.557C750.761 330.349 746.101 330.849 741.593 329.992C737.085 329.136 732.932 326.962 729.66 323.746C726.387 320.529 724.142 316.415 723.208 311.922C722.274 307.43 722.694 302.761 724.413 298.507C726.132 294.253 729.074 290.604 732.867 288.022C736.66 285.44 741.133 284.04 745.722 284.001C748.768 283.974 751.791 284.548 754.615 285.69C757.44 286.832 760.013 288.518 762.186 290.654C764.358 292.79 766.089 295.333 767.28 298.138C768.47 300.942 769.096 303.954 769.122 307.001Z" fill="#263238"/>
<path d="M786.18 323.36C786.18 323.36 782.56 341.06 781.08 343.96C780.095 345.761 778.455 347.115 776.5 347.74L776.64 335.3L786.18 323.36Z" fill="#263238"/>
<path d="M781.242 298.1C782.553 297.932 783.886 298.066 785.137 298.493C786.389 298.919 787.526 299.626 788.462 300.56C791.582 303.7 789.942 313.62 786.182 323.36L779.102 324.24L781.242 298.1Z" fill="#263238"/>
<path d="M776.98 324.26C778.4 325.1 780.4 322.26 782.14 320.5C783.88 318.74 789.56 316.1 792.48 322.08C795.4 328.06 790.08 336.32 785.6 337.76C777.86 340.28 776.64 335.3 776.64 335.3L776.32 364.14C766.8 376.6 740.02 375.78 751.06 362.78V354.26C747.612 354.839 744.112 355.047 740.62 354.88C734.9 354.06 731.28 349.58 729.48 343.42C726.62 333.54 725.48 325.54 727.68 306C730.08 284.6 754.94 284.16 768.44 292.5C781.94 300.84 776.98 324.26 776.98 324.26Z" fill="#B16668"/>
<path d="M777.004 326.64C777.704 326.64 780.384 322.12 782.144 320.5C784.564 318.24 781.244 298.1 781.244 298.1C782.074 296.313 782.347 294.317 782.026 292.372C781.705 290.428 780.805 288.625 779.444 287.2C776.064 283.54 771.344 279.08 756.144 281C745.284 282.38 733.504 285.88 723.924 281.28C723.071 284.399 723.167 287.701 724.2 290.765C725.233 293.829 727.156 296.515 729.724 298.48C729.724 298.48 733.204 300.68 742.304 301.7C750.694 302.252 759.117 302.018 767.464 301C770.104 300.62 770.684 303.16 772.164 310.14C773.464 316.24 774.604 326.62 777.004 326.64Z" fill="#263238"/>
<path d="M781.242 299.66L789.782 294.98C789.505 294.402 789.113 293.887 788.63 293.465C788.147 293.044 787.584 292.725 786.973 292.529C786.363 292.332 785.72 292.262 785.082 292.322C784.444 292.383 783.825 292.573 783.262 292.88C782.118 293.533 781.269 294.602 780.893 295.865C780.517 297.128 780.642 298.487 781.242 299.66Z" fill="#263238"/>
<path d="M751 354.26C751 354.26 763.72 351.58 768.14 349.18C770.746 347.795 772.872 345.655 774.24 343.04C773.595 345.646 772.432 348.094 770.82 350.24C767.6 354.44 751.04 357.64 751.04 357.64L751 354.26Z" fill="#9A4A4D"/>
<path d="M749.981 322.22C749.975 322.561 750.038 322.899 750.164 323.215C750.29 323.532 750.477 323.82 750.715 324.064C750.953 324.307 751.237 324.501 751.55 324.635C751.864 324.768 752.2 324.838 752.541 324.84C753.072 324.86 753.598 324.721 754.049 324.439C754.5 324.157 754.857 323.747 755.072 323.26C755.288 322.774 755.353 322.234 755.258 321.711C755.164 321.187 754.915 320.704 754.543 320.323C754.171 319.943 753.694 319.683 753.173 319.576C752.652 319.47 752.11 319.522 751.619 319.726C751.128 319.93 750.709 320.277 750.417 320.722C750.125 321.167 749.973 321.689 749.981 322.22Z" fill="#263238"/>
<path d="M757.562 313.44L751.882 310.86C751.552 311.637 751.534 312.511 751.832 313.301C752.13 314.091 752.721 314.735 753.482 315.1C753.858 315.267 754.264 315.356 754.675 315.362C755.086 315.368 755.494 315.292 755.875 315.137C756.256 314.982 756.601 314.752 756.891 314.46C757.181 314.169 757.409 313.822 757.562 313.44Z" fill="#263238"/>
<path d="M733.26 310.3L728.32 314.18C728.554 314.517 728.854 314.801 729.202 315.017C729.551 315.232 729.94 315.373 730.345 315.431C730.751 315.489 731.164 315.463 731.559 315.355C731.953 315.246 732.322 315.058 732.64 314.8C733.296 314.269 733.725 313.509 733.84 312.673C733.956 311.837 733.748 310.989 733.26 310.3Z" fill="#263238"/>
<path d="M730.283 321.601C730.306 322.078 730.469 322.538 730.752 322.924C731.035 323.309 731.425 323.603 731.874 323.769C732.322 323.935 732.81 323.965 733.275 323.856C733.741 323.748 734.164 323.504 734.493 323.157C734.821 322.809 735.04 322.373 735.123 321.902C735.206 321.431 735.148 320.946 734.957 320.507C734.766 320.069 734.451 319.696 734.05 319.435C733.649 319.174 733.181 319.037 732.703 319.041C732.375 319.048 732.052 319.121 731.753 319.254C731.454 319.387 731.184 319.578 730.959 319.816C730.734 320.054 730.558 320.334 730.442 320.641C730.326 320.947 730.272 321.273 730.283 321.601Z" fill="#263238"/>
<path d="M743.524 319.54L742.084 334.84L734.184 331.8L743.524 319.54Z" fill="#9A4A4D"/>
<path d="M747.863 340.58C747.859 341.068 748 341.545 748.268 341.953C748.536 342.36 748.919 342.678 749.368 342.867C749.817 343.057 750.312 343.108 750.791 343.016C751.269 342.923 751.71 342.69 752.056 342.347C752.402 342.004 752.638 341.566 752.735 341.088C752.831 340.61 752.784 340.114 752.598 339.664C752.412 339.213 752.097 338.828 751.692 338.556C751.287 338.285 750.811 338.141 750.323 338.141C749.674 338.14 749.052 338.397 748.591 338.854C748.13 339.311 747.869 339.932 747.863 340.58Z" fill="#9A4A4D"/>
<path d="M810.301 177.64C814.115 178.489 817.79 179.869 821.221 181.74C824.501 183.506 827.441 185.842 829.901 188.64C832.268 191.35 834.015 194.545 835.021 198C836.073 201.662 836.156 205.536 835.261 209.24C834.669 212.18 833.499 214.974 831.821 217.46C830.313 219.599 828.5 221.505 826.441 223.12C824.425 224.684 822.277 226.069 820.021 227.26L813.661 230.62C811.742 231.622 809.921 232.8 808.221 234.14C806.685 235.305 805.507 236.878 804.821 238.68C804.476 239.483 803.915 240.175 803.201 240.68C802.858 240.942 802.461 241.123 802.038 241.209C801.616 241.296 801.179 241.286 800.761 241.18L791.401 239.18C790.952 239.085 790.526 238.902 790.148 238.641C789.77 238.38 789.448 238.046 789.201 237.66C788.939 237.298 788.766 236.879 788.697 236.438C788.627 235.996 788.663 235.545 788.801 235.12C789.58 232.21 790.941 229.489 792.801 227.12C794.476 225.029 796.412 223.16 798.561 221.56C800.636 220.041 802.837 218.703 805.141 217.56C807.421 216.42 809.541 215.32 811.501 214.24C813.293 213.293 814.977 212.153 816.521 210.84C817.868 209.706 818.802 208.159 819.181 206.44C819.527 204.938 819.503 203.375 819.113 201.884C818.723 200.394 817.978 199.02 816.941 197.88C814.355 195.054 810.898 193.174 807.121 192.54C800.134 190.98 794.228 193.333 789.401 199.6C788.938 200.286 788.347 200.877 787.661 201.34C787.29 201.529 786.884 201.642 786.469 201.673C786.053 201.704 785.636 201.652 785.241 201.52L775.241 199.3C774.888 199.232 774.553 199.094 774.254 198.895C773.955 198.696 773.699 198.439 773.501 198.14C773.283 197.833 773.136 197.483 773.07 197.113C773.005 196.742 773.022 196.362 773.121 196C773.962 192.926 775.541 190.104 777.721 187.78C780.168 185.079 783.072 182.831 786.301 181.14C789.839 179.282 793.655 178.012 797.601 177.38C801.811 176.639 806.125 176.727 810.301 177.64ZM799.741 248.72C800.18 248.814 800.595 248.997 800.96 249.259C801.324 249.52 801.631 249.854 801.861 250.24C802.107 250.613 802.275 251.033 802.354 251.473C802.433 251.913 802.422 252.364 802.321 252.8L799.921 263.64C799.72 264.505 799.19 265.258 798.443 265.74C797.697 266.221 796.792 266.394 795.921 266.22L785.321 263.88C784.884 263.786 784.472 263.605 784.107 263.347C783.743 263.089 783.434 262.76 783.201 262.38C782.951 262.008 782.782 261.589 782.703 261.148C782.624 260.707 782.636 260.255 782.741 259.82L785.141 248.96C785.342 248.094 785.872 247.341 786.618 246.86C787.365 246.378 788.27 246.206 789.141 246.38L799.741 248.72Z" fill="#00007E"/>
<path d="M841.739 279.62C844.384 279.184 847.078 279.13 849.739 279.46C852.297 279.75 854.782 280.495 857.079 281.66C859.271 282.782 861.195 284.365 862.719 286.3C864.333 288.374 865.375 290.836 865.739 293.44C866.153 295.465 866.153 297.554 865.739 299.58C865.322 301.342 864.648 303.034 863.739 304.6C862.847 306.109 861.83 307.541 860.699 308.88L857.479 312.68C856.509 313.816 855.639 315.034 854.879 316.32C854.201 317.463 853.855 318.771 853.879 320.1C853.875 320.724 853.695 321.334 853.359 321.86C853.206 322.111 852.999 322.326 852.754 322.488C852.508 322.651 852.23 322.757 851.939 322.8L845.399 323.88C844.767 323.979 844.121 323.828 843.599 323.46C843.342 323.292 843.128 323.068 842.972 322.805C842.816 322.541 842.722 322.245 842.699 321.94C842.425 319.89 842.582 317.806 843.159 315.82C843.677 314.038 844.438 312.335 845.419 310.76C846.355 309.252 847.419 307.826 848.599 306.5C849.779 305.18 850.839 303.94 851.839 302.74C852.74 301.673 853.524 300.513 854.179 299.28C854.752 298.209 854.956 296.979 854.759 295.78C854.596 294.726 854.179 293.728 853.545 292.871C852.911 292.014 852.078 291.324 851.119 290.86C848.748 289.702 846.056 289.378 843.479 289.94C841.147 290.284 838.978 291.338 837.267 292.959C835.556 294.58 834.387 296.69 833.919 299C833.791 299.564 833.561 300.1 833.239 300.58C832.851 301.005 832.313 301.263 831.739 301.3L824.779 302.44C824.284 302.521 823.778 302.414 823.359 302.14C823.14 301.998 822.954 301.81 822.816 301.589C822.678 301.368 822.59 301.119 822.559 300.86C822.317 298.675 822.612 296.464 823.419 294.42C824.287 292.056 825.574 289.867 827.219 287.96C829.013 285.866 831.133 284.076 833.499 282.66C836.022 281.121 838.821 280.089 841.739 279.62ZM853.159 328C853.465 327.948 853.779 327.959 854.081 328.031C854.384 328.103 854.668 328.235 854.919 328.42C855.169 328.598 855.381 328.824 855.542 329.085C855.704 329.346 855.811 329.637 855.859 329.94L857.099 337.5C857.15 337.806 857.139 338.12 857.067 338.422C856.995 338.725 856.863 339.01 856.679 339.26C856.503 339.512 856.278 339.726 856.016 339.888C855.755 340.05 855.463 340.156 855.159 340.2L847.759 341.42C847.455 341.47 847.145 341.458 846.846 341.386C846.547 341.314 846.266 341.183 846.019 341C845.762 340.826 845.545 340.602 845.379 340.34C845.214 340.079 845.105 339.786 845.059 339.48L843.819 331.9C843.727 331.277 843.886 330.643 844.261 330.137C844.636 329.631 845.196 329.294 845.819 329.2L853.159 328Z" fill="#00007E"/>
<g opacity="0.2">
<path d="M841.739 279.62C844.384 279.184 847.078 279.13 849.739 279.46C852.297 279.75 854.782 280.495 857.079 281.66C859.271 282.782 861.195 284.365 862.719 286.3C864.333 288.374 865.375 290.836 865.739 293.44C866.153 295.465 866.153 297.554 865.739 299.58C865.322 301.342 864.648 303.034 863.739 304.6C862.847 306.109 861.83 307.541 860.699 308.88L857.479 312.68C856.509 313.816 855.639 315.034 854.879 316.32C854.201 317.463 853.855 318.771 853.879 320.1C853.875 320.724 853.695 321.334 853.359 321.86C853.206 322.111 852.999 322.326 852.754 322.488C852.508 322.651 852.23 322.757 851.939 322.8L845.399 323.88C844.767 323.979 844.121 323.828 843.599 323.46C843.342 323.292 843.128 323.068 842.972 322.805C842.816 322.541 842.722 322.245 842.699 321.94C842.425 319.89 842.582 317.806 843.159 315.82C843.677 314.038 844.438 312.335 845.419 310.76C846.355 309.252 847.419 307.826 848.599 306.5C849.779 305.18 850.839 303.94 851.839 302.74C852.74 301.673 853.524 300.513 854.179 299.28C854.752 298.209 854.956 296.979 854.759 295.78C854.596 294.726 854.179 293.728 853.545 292.871C852.911 292.014 852.078 291.324 851.119 290.86C848.748 289.702 846.056 289.378 843.479 289.94C841.147 290.284 838.978 291.338 837.267 292.959C835.556 294.58 834.387 296.69 833.919 299C833.791 299.564 833.561 300.1 833.239 300.58C832.851 301.005 832.313 301.263 831.739 301.3L824.779 302.44C824.284 302.521 823.778 302.414 823.359 302.14C823.14 301.998 822.954 301.81 822.816 301.589C822.678 301.368 822.59 301.119 822.559 300.86C822.317 298.675 822.612 296.464 823.419 294.42C824.287 292.056 825.574 289.867 827.219 287.96C829.013 285.866 831.133 284.076 833.499 282.66C836.022 281.121 838.821 280.089 841.739 279.62ZM853.159 328C853.465 327.948 853.779 327.959 854.081 328.031C854.384 328.103 854.668 328.235 854.919 328.42C855.169 328.598 855.381 328.824 855.542 329.085C855.704 329.346 855.811 329.637 855.859 329.94L857.099 337.5C857.15 337.806 857.139 338.12 857.067 338.422C856.995 338.725 856.863 339.01 856.679 339.26C856.503 339.512 856.278 339.726 856.016 339.888C855.755 340.05 855.463 340.156 855.159 340.2L847.759 341.42C847.455 341.47 847.145 341.458 846.846 341.386C846.547 341.314 846.266 341.183 846.019 341C845.762 340.826 845.545 340.602 845.379 340.34C845.214 340.079 845.105 339.786 845.059 339.48L843.819 331.9C843.727 331.277 843.886 330.643 844.261 330.137C844.636 329.631 845.196 329.294 845.819 329.2L853.159 328Z" fill="black"/>
</g>
<path d="M909.942 301.079C910.536 301.513 910.937 302.161 911.061 302.885C911.184 303.61 911.019 304.354 910.602 304.959L905.322 312.359C904.889 312.954 904.241 313.355 903.516 313.478C902.791 313.602 902.047 313.437 901.442 313.019L894.202 307.879C893.903 307.671 893.65 307.403 893.458 307.094C893.265 306.785 893.137 306.44 893.082 306.079C892.977 305.379 893.141 304.664 893.542 304.079L898.822 296.659C899.25 296.063 899.897 295.66 900.622 295.539C901.326 295.434 902.043 295.606 902.622 296.019L909.942 301.079ZM940.502 250.899C943.113 252.741 945.443 254.951 947.422 257.459C949.333 259.847 950.803 262.556 951.762 265.459C952.679 268.235 952.986 271.175 952.662 274.079C952.287 277.172 951.115 280.115 949.262 282.619C947.88 284.645 946.113 286.378 944.062 287.719C942.238 288.852 940.257 289.708 938.182 290.259C936.17 290.796 934.116 291.158 932.042 291.339L926.162 291.839C924.406 292.001 922.667 292.308 920.962 292.759C919.437 293.163 918.052 293.979 916.962 295.119C916.438 295.63 915.79 295.995 915.082 296.179C914.738 296.261 914.381 296.266 914.035 296.193C913.689 296.12 913.364 295.972 913.082 295.759L906.682 291.219C906.071 290.78 905.655 290.12 905.522 289.379C905.445 289.03 905.451 288.668 905.538 288.321C905.624 287.974 905.79 287.652 906.022 287.379C907.51 285.428 909.382 283.801 911.522 282.599C913.448 281.544 915.506 280.75 917.642 280.239C919.691 279.744 921.779 279.423 923.882 279.279C925.882 279.159 927.882 278.999 929.722 278.819C931.374 278.677 933.004 278.348 934.582 277.839C935.957 277.421 937.154 276.555 937.982 275.379C938.725 274.361 939.209 273.176 939.39 271.928C939.571 270.681 939.445 269.407 939.022 268.219C937.979 265.272 935.979 262.758 933.342 261.079C928.582 257.679 923.382 257.566 917.742 260.739C917.173 261.103 916.543 261.36 915.882 261.499C915.539 261.524 915.194 261.48 914.868 261.37C914.542 261.26 914.24 261.087 913.982 260.859L907.182 256.019C906.687 255.683 906.342 255.166 906.222 254.579C906.164 254.279 906.171 253.97 906.244 253.674C906.316 253.377 906.452 253.099 906.642 252.859C908.225 250.814 910.285 249.186 912.642 248.119C915.347 246.868 918.251 246.103 921.222 245.859C924.475 245.594 927.75 245.851 930.922 246.619C934.367 247.397 937.624 248.852 940.502 250.899Z" fill="#00007E"/>
<g opacity="0.6">
<path d="M909.942 301.079C910.536 301.513 910.937 302.161 911.061 302.885C911.184 303.61 911.019 304.354 910.602 304.959L905.322 312.359C904.889 312.954 904.241 313.355 903.516 313.478C902.791 313.602 902.047 313.437 901.442 313.019L894.202 307.879C893.903 307.671 893.65 307.403 893.458 307.094C893.265 306.785 893.137 306.44 893.082 306.079C892.977 305.379 893.141 304.664 893.542 304.079L898.822 296.659C899.25 296.063 899.897 295.66 900.622 295.539C901.326 295.434 902.043 295.606 902.622 296.019L909.942 301.079ZM940.502 250.899C943.113 252.741 945.443 254.951 947.422 257.459C949.333 259.847 950.803 262.556 951.762 265.459C952.679 268.235 952.986 271.175 952.662 274.079C952.287 277.172 951.115 280.115 949.262 282.619C947.88 284.645 946.113 286.378 944.062 287.719C942.238 288.852 940.257 289.708 938.182 290.259C936.17 290.796 934.116 291.158 932.042 291.339L926.162 291.839C924.406 292.001 922.667 292.308 920.962 292.759C919.437 293.163 918.052 293.979 916.962 295.119C916.438 295.63 915.79 295.995 915.082 296.179C914.738 296.261 914.381 296.266 914.035 296.193C913.689 296.12 913.364 295.972 913.082 295.759L906.682 291.219C906.071 290.78 905.655 290.12 905.522 289.379C905.445 289.03 905.451 288.668 905.538 288.321C905.624 287.974 905.79 287.652 906.022 287.379C907.51 285.428 909.382 283.801 911.522 282.599C913.448 281.544 915.506 280.75 917.642 280.239C919.691 279.744 921.779 279.423 923.882 279.279C925.882 279.159 927.882 278.999 929.722 278.819C931.374 278.677 933.004 278.348 934.582 277.839C935.957 277.421 937.154 276.555 937.982 275.379C938.725 274.361 939.209 273.176 939.39 271.928C939.571 270.681 939.445 269.407 939.022 268.219C937.979 265.272 935.979 262.758 933.342 261.079C928.582 257.679 923.382 257.566 917.742 260.739C917.173 261.103 916.543 261.36 915.882 261.499C915.539 261.524 915.194 261.48 914.868 261.37C914.542 261.26 914.24 261.087 913.982 260.859L907.182 256.019C906.687 255.683 906.342 255.166 906.222 254.579C906.164 254.279 906.171 253.97 906.244 253.674C906.316 253.377 906.452 253.099 906.642 252.859C908.225 250.814 910.285 249.186 912.642 248.119C915.347 246.868 918.251 246.103 921.222 245.859C924.475 245.594 927.75 245.851 930.922 246.619C934.367 247.397 937.624 248.852 940.502 250.899Z" fill="white"/>
</g>
<path d="M265.46 697.04C265.26 691.04 269.58 632.401 269.58 632.401L241.02 653.12C246.88 688.08 248.14 696.34 248.24 702.06C248.119 702.537 248.065 703.029 248.08 703.521C248.08 710.321 255.78 713.981 261.76 718.521C266.842 722.495 272.255 726.028 277.94 729.081C282.28 731.261 291.12 731.46 292.2 728.66C284.92 723.1 274.34 714.78 268.54 708.44C265.78 705.4 265.68 703 265.46 697.04Z" fill="#FFA8A7"/>
<path d="M304.618 736C304.941 736.934 304.999 737.939 304.783 738.903C304.568 739.868 304.088 740.753 303.398 741.46C298.153 745.242 291.624 746.795 285.238 745.78C276.158 744.6 271.238 742.02 267.618 738.98C263.998 735.94 258.898 731.66 254.778 730.76C251.502 730.136 248.387 728.857 245.618 727C244.398 725.82 244.558 720.58 244.558 720.58L304.618 736Z" fill="#263238"/>
<path d="M248.177 700.4C247.841 700.41 247.518 700.538 247.266 700.761C247.014 700.983 246.848 701.288 246.797 701.62C246.517 703.06 246.217 707.26 245.617 709.62C244.689 713.792 244.392 718.08 244.737 722.34C245.237 725.04 251.437 726.9 255.417 728.34C260.097 730.378 264.44 733.116 268.297 736.46C273.862 740.622 280.505 743.1 287.437 743.6C294.437 743.6 302.317 741.28 304.137 738.04C306.357 734.04 304.617 731.7 294.237 726.88C292.237 725.98 285.377 721.88 283.017 720.4C276.657 716.4 270.357 710.82 267.417 703.74C267.18 702.874 266.659 702.114 265.937 701.58C265.307 701.308 264.608 701.239 263.937 701.38C262.203 701.633 260.518 702.145 258.937 702.9C257.557 703.56 255.577 704.34 255.597 706.12C255.64 706.737 255.774 707.343 255.997 707.92C256.117 708.3 256.217 708.78 255.997 709C255.777 709.22 255.297 709 255.017 708.72C253.999 707.679 253.069 706.555 252.237 705.36C251.745 704.748 251.189 704.192 250.577 703.7C249.965 703.353 249.377 702.966 248.817 702.54C248.057 702 248.217 701.24 248.177 700.4Z" fill="#455A64"/>
<path d="M268.297 736.56C266.477 735.08 264.557 733.62 262.637 732.34C262.637 732.34 274.837 739.76 279.757 736.34C280.67 735.761 281.338 734.866 281.633 733.826C281.928 732.785 281.83 731.673 281.357 730.7C281.357 729.86 289.117 726.24 292.197 725.88C293.057 726.36 293.777 726.74 294.197 726.94C304.577 731.76 306.317 734.08 304.097 738.1C302.277 741.34 296.577 743.88 287.537 743.88C281.657 744 272.497 740 268.297 736.56Z" fill="#37474F"/>
<path d="M280.499 728.28C286.959 730.86 284.199 732.06 282.399 732.28C280.599 732.5 269.739 726.28 263.099 720.96C256.459 715.64 251.839 709.5 249.279 707.5C248.319 706.76 247.279 705.84 246.359 704.98C246.539 703.56 246.679 702.26 246.799 701.58C246.851 701.248 247.017 700.944 247.269 700.721C247.521 700.498 247.843 700.37 248.179 700.36C248.179 701.2 248.059 701.98 248.699 702.6C249.259 703.026 249.847 703.413 250.459 703.76C251.071 704.252 251.628 704.809 252.119 705.42C252.952 706.615 253.882 707.739 254.899 708.78C262.096 716.869 270.789 723.491 280.499 728.28Z" fill="#263238"/>
<path d="M281.94 731.38C281.792 731.375 281.65 731.318 281.54 731.22C281.475 731.17 281.42 731.107 281.38 731.035C281.34 730.963 281.314 730.883 281.305 730.801C281.295 730.719 281.303 730.636 281.326 730.557C281.349 730.478 281.388 730.404 281.44 730.34C282.961 728.761 284.803 727.526 286.842 726.718C288.881 725.911 291.069 725.55 293.26 725.66C293.431 725.68 293.588 725.767 293.697 725.902C293.805 726.037 293.857 726.208 293.84 726.38C293.82 726.547 293.735 726.699 293.604 726.803C293.473 726.908 293.306 726.957 293.14 726.94C291.162 726.858 289.189 727.19 287.347 727.913C285.505 728.636 283.833 729.735 282.44 731.14C282.379 731.214 282.302 731.274 282.216 731.315C282.13 731.357 282.035 731.379 281.94 731.38Z" fill="#F5F5F5"/>
<path d="M276.32 728C276.167 728.007 276.018 727.957 275.9 727.86C275.786 727.738 275.723 727.577 275.723 727.41C275.723 727.243 275.786 727.083 275.9 726.96C277.424 725.386 279.268 724.156 281.306 723.353C283.345 722.549 285.531 722.19 287.72 722.3C287.89 722.319 288.045 722.404 288.152 722.537C288.259 722.67 288.308 722.841 288.29 723.01C288.271 723.18 288.186 723.335 288.053 723.442C287.92 723.549 287.75 723.599 287.58 723.58C285.602 723.493 283.628 723.822 281.784 724.546C279.941 725.269 278.271 726.371 276.88 727.78C276.812 727.86 276.725 727.922 276.627 727.96C276.53 727.999 276.424 728.012 276.32 728Z" fill="#F5F5F5"/>
<path d="M270.679 724.62C270.533 724.622 270.391 724.572 270.279 724.48C270.16 724.36 270.094 724.199 270.094 724.03C270.094 723.862 270.16 723.7 270.279 723.58C271.804 722.007 273.647 720.778 275.686 719.974C277.724 719.171 279.91 718.811 282.099 718.92C282.183 718.928 282.265 718.952 282.34 718.991C282.414 719.03 282.481 719.084 282.535 719.149C282.588 719.214 282.629 719.289 282.654 719.37C282.678 719.451 282.687 719.536 282.679 719.62C282.671 719.704 282.647 719.786 282.608 719.861C282.568 719.936 282.515 720.002 282.45 720.056C282.384 720.11 282.309 720.15 282.229 720.175C282.148 720.2 282.063 720.208 281.979 720.2C280.001 720.113 278.026 720.442 276.183 721.166C274.34 721.889 272.669 722.991 271.279 724.4C271.204 724.483 271.111 724.547 271.006 724.585C270.901 724.623 270.789 724.635 270.679 724.62Z" fill="#F5F5F5"/>
<path d="M265.457 720.88C265.311 720.882 265.17 720.833 265.057 720.74C264.996 720.682 264.947 720.613 264.914 720.535C264.88 720.458 264.863 720.375 264.863 720.29C264.863 720.206 264.88 720.123 264.914 720.045C264.947 719.968 264.996 719.898 265.057 719.84C266.58 718.264 268.423 717.033 270.462 716.229C272.501 715.425 274.688 715.068 276.877 715.18C277.043 715.2 277.195 715.285 277.3 715.416C277.405 715.547 277.454 715.714 277.437 715.88C277.417 716.047 277.332 716.199 277.201 716.303C277.07 716.408 276.904 716.457 276.737 716.44C274.76 716.362 272.788 716.695 270.946 717.418C269.104 718.141 267.433 719.238 266.037 720.64C265.969 720.727 265.88 720.794 265.778 720.836C265.677 720.878 265.566 720.894 265.457 720.88Z" fill="#F5F5F5"/>
<path d="M260.358 717.14C260.214 717.134 260.075 717.085 259.958 717C259.84 716.881 259.773 716.719 259.773 716.55C259.773 716.382 259.84 716.22 259.958 716.1C261.608 714.384 263.627 713.066 265.862 712.248C268.098 711.43 270.491 711.134 272.858 711.38C272.943 711.385 273.026 711.407 273.101 711.446C273.176 711.484 273.243 711.539 273.295 711.605C273.348 711.671 273.387 711.748 273.408 711.829C273.429 711.911 273.433 711.997 273.418 712.08C273.398 712.247 273.314 712.399 273.183 712.504C273.052 712.608 272.885 712.657 272.718 712.64C270.566 712.428 268.394 712.699 266.359 713.432C264.325 714.166 262.48 715.344 260.958 716.88C260.888 716.971 260.797 717.042 260.692 717.087C260.587 717.133 260.472 717.151 260.358 717.14Z" fill="#F5F5F5"/>
<path d="M211.66 659.1L182.84 658.58C183.26 677.82 186.32 699.16 186.84 717.2C186.84 720.6 186.84 743.6 188.04 750.6C190.04 761.1 202.44 759.68 203.1 753.4C203.76 747.12 202.3 720.26 202.34 717.4C202.22 705.84 207.64 686.3 210.5 665.52C210.62 664.58 211.52 660.1 211.66 659.1Z" fill="#FFA8A7"/>
<path d="M207.78 757.76C208.315 762.573 207.627 767.444 205.78 771.92C204.865 773.698 203.389 775.125 201.581 775.978C199.773 776.832 197.734 777.064 195.78 776.64C191.52 776.02 185.9 773.74 184.18 768.64C182.551 763.943 181.977 758.945 182.5 754L207.78 757.76Z" fill="#263238"/>
<path d="M186.76 715C185.06 715.3 185.38 723.6 185.22 731.94C185.04 740.9 182.78 744.82 182.56 752.16C182.3 760.56 183.12 764.16 186.56 768.92C190 773.68 200.74 777.52 205.08 769.84C208.62 763.58 208.14 757.08 206.92 748.84C205.7 740.6 204.74 734.36 204.42 727.84C204.1 721.32 203.96 715.54 202.42 715C202.42 715.92 202.42 717.1 202.42 718C202.42 718.9 202.56 722 201.6 722.2C201.452 721.428 201.365 720.645 201.34 719.86C201.385 719.133 201.148 718.417 200.68 717.86C200.102 717.433 199.399 717.208 198.68 717.22C196.967 717.027 195.244 716.933 193.52 716.94C192.66 716.94 191.78 716.94 190.94 717.08C190.201 717.136 189.477 717.319 188.8 717.62C188.601 717.705 188.421 717.831 188.273 717.989C188.125 718.148 188.012 718.335 187.94 718.54C187.88 718.857 187.88 719.183 187.94 719.5C188.01 720.071 188.01 720.649 187.94 721.22C187.94 721.48 187.76 721.8 187.5 721.76C187.24 721.72 187.2 721.48 187.18 721.28C187.06 720.28 187.18 719.54 187.06 718.38C187.06 717.84 187.06 717.1 187.06 716.56C187.06 716.02 186.78 715.54 186.76 715Z" fill="#455A64"/>
<path d="M182.697 749.76C182.697 750.98 182.437 759 184.697 760.2C186.957 761.4 187.837 755.16 187.837 755.16C187.837 755.16 193.137 752.94 201.457 755.62C201.177 756.94 202.817 761.06 204.917 759.94C207.017 758.82 206.917 749.68 206.917 749.56C208.057 757.56 208.417 763.76 204.917 769.84C200.577 777.52 189.797 773.64 186.397 768.92C182.997 764.2 182.177 760.56 182.397 752.16C182.497 751.32 182.637 750.54 182.697 749.76Z" fill="#37474F"/>
<path d="M188.498 755.62C188.758 758.62 185.718 757.92 185.158 753.62C184.598 749.32 185.918 739.14 185.158 731.86C185.318 723.52 184.998 715.22 186.698 714.92C186.689 715.02 186.689 715.12 186.698 715.22L186.898 719.44C186.859 720.039 186.859 720.641 186.898 721.24C187.458 727.36 187.798 739.24 187.818 744.88C187.854 748.47 188.081 752.055 188.498 755.62Z" fill="#263238"/>
<path d="M200.498 755.62C200.89 752.08 201.083 748.521 201.078 744.96C201.078 739.36 201.438 727.62 201.998 721.46C202.215 720.32 202.302 719.159 202.258 718C202.258 717.16 202.258 716 202.258 715.2C202.258 715.2 202.258 715.08 202.258 715C203.378 715.42 203.778 718.72 204.018 722.88C204.018 725.3 204.018 728.3 203.798 731.94C203.038 739.22 204.358 749.54 203.798 753.76C203.238 757.98 200.298 758.62 200.498 755.62Z" fill="#263238"/>
<path d="M201.679 755.84H201.459C197.137 754.349 192.44 754.349 188.119 755.84C188.04 755.871 187.956 755.885 187.872 755.883C187.787 755.881 187.704 755.862 187.627 755.827C187.55 755.793 187.48 755.744 187.422 755.683C187.364 755.621 187.319 755.549 187.289 755.47C187.258 755.392 187.244 755.308 187.246 755.223C187.249 755.139 187.267 755.056 187.302 754.979C187.336 754.902 187.385 754.832 187.447 754.774C187.508 754.716 187.58 754.671 187.659 754.64C192.269 752.994 197.308 752.994 201.919 754.64C201.997 754.669 202.069 754.713 202.13 754.771C202.191 754.828 202.24 754.897 202.274 754.974C202.307 755.05 202.325 755.133 202.326 755.217C202.327 755.3 202.311 755.383 202.279 755.46C202.23 755.578 202.146 755.677 202.038 755.745C201.931 755.813 201.806 755.846 201.679 755.84Z" fill="#F5F5F5"/>
<path d="M202.5 749.2C202.428 749.218 202.352 749.218 202.28 749.2C197.421 747.691 192.219 747.691 187.36 749.2C187.28 749.228 187.195 749.24 187.11 749.235C187.025 749.231 186.942 749.209 186.866 749.172C186.79 749.134 186.722 749.082 186.666 749.019C186.61 748.955 186.567 748.88 186.54 748.8C186.512 748.721 186.5 748.638 186.505 748.554C186.51 748.471 186.532 748.389 186.569 748.315C186.607 748.24 186.659 748.174 186.722 748.119C186.786 748.065 186.86 748.025 186.94 748C192.073 746.365 197.587 746.365 202.72 748C202.86 748.052 202.978 748.152 203.053 748.282C203.127 748.412 203.153 748.564 203.127 748.712C203.101 748.859 203.024 748.993 202.909 749.089C202.795 749.186 202.65 749.239 202.5 749.24V749.2Z" fill="#F5F5F5"/>
<path d="M187.099 742.92C186.977 742.917 186.858 742.879 186.755 742.812C186.653 742.745 186.571 742.651 186.519 742.54C186.451 742.386 186.447 742.212 186.507 742.054C186.567 741.897 186.686 741.77 186.839 741.7C191.891 739.713 197.502 739.678 202.579 741.6C202.658 741.629 202.73 741.673 202.791 741.73C202.852 741.788 202.9 741.857 202.934 741.933C202.968 742.01 202.986 742.092 202.986 742.176C202.987 742.26 202.971 742.343 202.939 742.42C202.877 742.575 202.756 742.7 202.603 742.767C202.449 742.835 202.276 742.839 202.119 742.78C202.119 742.78 194.279 739.7 187.379 742.78C187.297 742.847 187.202 742.895 187.099 742.92Z" fill="#F5F5F5"/>
<path d="M186.958 737.04C186.837 737.041 186.719 737.008 186.616 736.944C186.513 736.88 186.431 736.789 186.378 736.68C186.309 736.529 186.302 736.356 186.358 736.199C186.414 736.043 186.529 735.914 186.678 735.84C189.185 734.698 191.904 734.091 194.659 734.06C197.414 734.029 200.146 734.574 202.678 735.66C202.754 735.695 202.822 735.744 202.878 735.805C202.935 735.866 202.978 735.938 203.006 736.017C203.034 736.095 203.046 736.178 203.041 736.261C203.037 736.344 203.015 736.426 202.978 736.5C202.944 736.576 202.894 736.644 202.833 736.701C202.772 736.757 202.7 736.801 202.622 736.829C202.543 736.857 202.46 736.869 202.377 736.864C202.294 736.859 202.213 736.837 202.138 736.8C199.762 735.816 197.211 735.325 194.64 735.356C192.068 735.387 189.53 735.939 187.178 736.98C187.108 737.012 187.034 737.032 186.958 737.04Z" fill="#F5F5F5"/>
<path d="M186.818 730.46C186.671 730.463 186.528 730.414 186.413 730.324C186.298 730.234 186.217 730.106 186.184 729.964C186.151 729.821 186.169 729.671 186.233 729.539C186.297 729.408 186.405 729.302 186.538 729.24C194.158 725.48 202.378 729.08 202.718 729.24C202.797 729.27 202.869 729.317 202.93 729.377C202.99 729.437 203.037 729.509 203.067 729.588C203.097 729.668 203.11 729.753 203.105 729.837C203.1 729.922 203.077 730.005 203.038 730.08C202.968 730.233 202.84 730.353 202.683 730.413C202.526 730.473 202.352 730.468 202.198 730.4C202.198 730.4 194.198 726.9 187.118 730.4C187.025 730.448 186.921 730.469 186.818 730.46Z" fill="#F5F5F5"/>
<path d="M192.318 472C182.158 500.14 183.938 517.8 185.678 547.3C187.278 574.34 189.818 598.16 189.818 598.16C189.418 602.96 182.738 612.32 181.818 633.52C181.523 648.448 182.191 663.379 183.818 678.22C183.818 678.22 197.118 683.08 208.358 678.22C208.358 678.22 219.858 627.44 222.998 602.62C225.718 580.96 230.478 553.28 230.478 553.28L240.478 602.52C238.523 609.138 237.52 616 237.498 622.9C237.498 634.48 242.878 666.68 242.878 666.68C242.878 666.68 257.778 671.5 267.218 663.12C267.218 663.12 270.958 616.78 272.278 599.12C274.038 575.56 271.478 510.98 265.818 477.92L192.318 472Z" fill="#455A64"/>
<path d="M230.598 553.2L234.758 516.16C234.758 516.16 253.378 513.68 261.818 505.74C259.396 509.527 256.169 512.733 252.366 515.129C248.563 517.524 244.279 519.051 239.818 519.6L233.818 554.08L240.618 602.44L230.598 553.2Z" fill="#37474F"/>
<path d="M276.637 444.54C267.577 435.22 251.217 414.14 251.217 414.14L241.977 382.14C244.042 382.248 246.111 382.248 248.177 382.14C258.177 382.8 261.117 383.66 267.337 390.46C272.277 395.88 291.117 421.6 297.657 430.26L315.037 408.12C319.217 401.82 318.537 394.76 320.697 389.62C322.857 384.48 326.357 382.22 329.157 377.62C331.957 373.02 332.617 369.94 334.917 372.32C337.217 374.7 334.557 381.1 334.217 382.56C333.877 384.02 330.357 388.36 336.217 386.1C342.077 383.84 351.117 373.14 353.437 370.96C355.757 368.78 356.997 372.16 356.477 374.84C355.957 377.52 358.477 383.56 357.557 387.98C356.984 392.426 354.773 396.498 351.357 399.4C347.137 403.64 336.817 408.86 332.777 414.44C328.737 420.02 320.117 437.36 314.777 447.8C308.077 461.08 302.377 465.46 294.777 460.98C287.177 456.5 279.977 448 276.637 444.54Z" fill="#FFA8A7"/>
<path d="M244.92 381.8C250.034 381.289 255.196 381.974 260 383.8C265.42 386.24 269.1 391.48 274.4 398.58C279.7 405.68 289.16 418.1 289.16 418.1C289.16 418.1 286.6 428.88 269.72 438.56L242.16 410.18L244.92 381.8Z" fill="#8A8ACA"/>
<path d="M297.659 430.24C294.363 433.35 292.154 437.438 291.359 441.9C291.359 441.9 289.359 435.48 296.179 428.26L297.659 430.24Z" fill="#F28F8F"/>
<path d="M264.877 438.62C277.177 428.5 273.117 415.32 268.637 406.44C259.657 388.7 250.317 381.72 246.417 381.78L221.957 382.02C210.277 383.62 201.237 382.82 198.417 383.48C191.217 385.18 191.057 391.1 190.777 398.76C190.477 407.16 186.177 405.74 188.357 419.62C190.928 424.779 193.186 430.089 195.117 435.52C196.437 440.32 200.157 447.96 198.177 455.72C197.417 458.72 195.377 461.72 192.317 469.94C188.848 479.18 186.269 488.73 184.617 498.46C184.617 498.46 191.757 496.8 199.877 488.16C199.877 488.16 210.977 503.02 237.677 501.52C265.377 499.96 267.817 485.52 267.817 485.52L263.577 459.52C264.217 449.02 264.497 445.22 264.877 438.62Z" fill="#8A8ACA"/>
<path opacity="0.1" d="M248.897 436C248.897 436 238.897 444 227.157 440.16C223.886 439.18 220.922 437.379 218.544 434.928C216.167 432.477 214.457 429.459 213.577 426.16C213.577 426.16 212.577 439.46 227.337 443.74C231.285 444.938 235.514 444.832 239.397 443.438C243.281 442.044 246.612 439.436 248.897 436Z" fill="black"/>
<path d="M178.878 370.36C175.258 367.72 155.758 393.82 164.878 400.36C173.998 406.9 183.718 388.36 181.758 379.6C179.798 370.84 178.878 370.36 178.878 370.36Z" fill="#37474F"/>
<path d="M161.178 357.4C166.058 350.64 169.378 345.54 173.838 339.74C176.358 336.44 177.978 334.1 180.398 330.72C182.078 328.4 183.058 326.44 184.938 325.7C187.037 324.776 188.913 323.412 190.438 321.7C191.372 320.618 192.234 319.476 193.018 318.28C195.837 314.377 199.205 310.901 203.018 307.96C207.018 304.86 211.398 302.46 215.478 299.5C217.898 297.74 220.498 294.84 217.478 292.22C216.54 291.463 215.425 290.954 214.238 290.74C206.958 289.28 200.658 291.9 193.578 293.84C190.5 294.68 187.491 295.756 184.578 297.06C183.132 297.647 181.784 298.45 180.578 299.44C178.903 301.19 177.55 303.221 176.578 305.44C173.478 311.14 166.938 316.22 162.358 320.68C156.978 325.92 152.178 330.68 146.038 336.5C140.518 341.7 135.098 346.5 130.038 352.18C125.858 356.86 127.478 360.46 128.038 361.68C131.638 368.76 135.558 371.26 140.278 375.68C141.838 377.12 143.418 378.54 144.998 379.96C151.118 385.48 157.238 390.64 163.598 395.96C170.398 401.56 173.198 404.28 179.258 409.72C183.082 413.233 186.269 417.381 188.678 421.98C199.178 423.72 209.498 407.66 200.498 388.88C199.018 385.843 196.779 383.239 193.998 381.32C182.918 373.42 161.178 357.4 161.178 357.4Z" fill="#FFA8A7"/>
<path d="M161.18 357.401C157.904 361.559 153.503 364.69 148.5 366.421C148.5 366.421 155.2 368.021 164.2 359.641L161.18 357.401Z" fill="#F28F8F"/>
<path d="M199.257 383.32C196.797 381.62 190.817 378 178.877 370.36C178.877 370.36 180.717 374.22 177.817 383.92C174.917 393.62 168.797 399.76 164.957 400.46C164.957 400.46 171.637 405.74 177.797 411.7C183.957 417.66 189.017 421.88 192.577 428.8C192.577 428.8 201.377 426.54 203.377 411.62C204.777 401.16 203.937 388.88 199.257 383.32Z" fill="#8A8ACA"/>
<path d="M266.059 335.28C267.818 331.564 268.592 327.459 268.308 323.358C268.025 319.257 266.692 315.298 264.439 311.86C256.859 301.08 244.079 295.86 229.959 296.02H225.579C206.519 296.34 189.199 312.7 188.859 331.12C188.859 344.08 188.859 356.06 195.999 364.9C202.579 373.12 212.839 375.82 221.499 377.14C238.059 379.66 256.659 377.74 264.179 366.46C264.179 366.46 254.179 368.46 255.439 358.1C255.619 356.46 254.059 354.66 251.319 352.8C253.239 349.475 255.497 346.359 258.059 343.5C260.879 340.68 264.139 339.1 266.059 335.28Z" fill="#263238"/>
<path d="M261.117 344.74C261.017 364.04 254.837 368.9 251.737 370.34C248.637 371.78 242.557 371.02 236.657 370.16L236.857 381.74C236.857 381.74 243.757 388.72 243.357 394.04C242.957 399.36 232.797 400.04 225.097 395.06C220.855 392.251 217.008 388.888 213.657 385.06C213.017 384.319 212.656 383.378 212.637 382.4L212.157 355.18C212.157 355.18 208.997 358.64 203.237 354.84C201.992 354.079 200.92 353.068 200.087 351.871C199.254 350.674 198.679 349.317 198.399 347.885C198.119 346.454 198.139 344.98 198.459 343.557C198.779 342.135 199.391 340.794 200.257 339.62C201.07 338.829 202.048 338.226 203.12 337.853C204.192 337.481 205.333 337.348 206.462 337.464C207.59 337.581 208.68 337.943 209.654 338.527C210.627 339.11 211.461 339.899 212.097 340.84C213.857 344.12 213.697 346.44 216.097 346.06C218.497 345.68 218.597 343.08 218.757 341.22C218.917 339.36 218.757 338.76 218.997 336.32C224.697 335.1 230.597 327.16 231.257 321.36C235.118 323.259 239.374 324.219 243.677 324.16C250.057 323.72 253.357 322.44 256.497 317.84C257.245 318.892 257.844 320.043 258.277 321.26C259.165 323.723 259.834 326.259 260.277 328.84C260.989 334.108 261.27 339.426 261.117 344.74Z" fill="#FFA8A7"/>
<path d="M236.659 370.16C230.439 369.44 217.619 366 215.539 361C216.38 363.538 217.978 365.758 220.119 367.36C223.999 370.56 236.719 374.02 236.719 374.02L236.659 370.16Z" fill="#F28F8F"/>
<path d="M242.919 359.76C242.931 360.263 242.793 360.759 242.523 361.183C242.253 361.608 241.863 361.943 241.402 362.145C240.942 362.348 240.431 362.409 239.936 362.321C239.441 362.233 238.982 362 238.62 361.651C238.257 361.303 238.006 360.854 237.898 360.362C237.791 359.871 237.832 359.358 238.016 358.89C238.2 358.422 238.52 358.019 238.933 357.732C239.347 357.446 239.836 357.288 240.339 357.28C241.009 357.27 241.657 357.524 242.14 357.989C242.623 358.453 242.903 359.09 242.919 359.76Z" fill="#B16668"/>
<path d="M239.658 340.76C239.691 341.115 239.653 341.473 239.547 341.813C239.441 342.153 239.269 342.469 239.04 342.742C238.811 343.016 238.531 343.241 238.214 343.405C237.898 343.57 237.553 343.67 237.198 343.7C236.651 343.758 236.099 343.652 235.613 343.395C235.127 343.137 234.729 342.74 234.47 342.255C234.211 341.77 234.103 341.218 234.159 340.671C234.216 340.124 234.435 339.606 234.788 339.184C235.141 338.763 235.612 338.456 236.14 338.303C236.669 338.151 237.231 338.16 237.754 338.33C238.277 338.499 238.738 338.821 239.077 339.254C239.417 339.687 239.619 340.211 239.658 340.76Z" fill="#263238"/>
<path d="M257.696 339.62C257.746 340.272 257.537 340.917 257.113 341.415C256.69 341.913 256.088 342.224 255.436 342.28C255.108 342.321 254.775 342.29 254.46 342.19C254.145 342.09 253.855 341.923 253.61 341.701C253.366 341.479 253.171 341.207 253.041 340.903C252.911 340.599 252.848 340.271 252.856 339.94C252.823 339.616 252.855 339.289 252.951 338.978C253.046 338.667 253.203 338.378 253.412 338.128C253.62 337.878 253.877 337.673 254.166 337.524C254.456 337.375 254.772 337.285 255.096 337.26C255.753 337.233 256.394 337.465 256.88 337.907C257.367 338.349 257.66 338.964 257.696 339.62Z" fill="#263238"/>
<path d="M245.238 337.12L247.158 353.24L255.418 349.8L245.238 337.12Z" fill="#F28F8F"/>
<path d="M230.02 333.8L234.82 329.24C235.417 329.905 235.736 330.775 235.71 331.669C235.684 332.562 235.315 333.412 234.68 334.04C234.363 334.341 233.989 334.574 233.579 334.725C233.17 334.876 232.734 334.942 232.298 334.92C231.862 334.897 231.436 334.787 231.044 334.594C230.652 334.402 230.304 334.132 230.02 333.8Z" fill="#263238"/>
<path d="M254.037 327.76L259.357 331.76C259.113 332.121 258.796 332.429 258.428 332.663C258.06 332.897 257.648 333.054 257.217 333.123C256.786 333.193 256.346 333.173 255.923 333.066C255.5 332.959 255.103 332.766 254.757 332.5C254.061 331.947 253.599 331.151 253.466 330.272C253.332 329.392 253.536 328.495 254.037 327.76Z" fill="#263238"/>
<path d="M177.36 181.26C181.195 180.529 185.116 180.353 189 180.74C192.713 181.065 196.337 182.054 199.7 183.66C202.927 185.2 205.78 187.425 208.06 190.18C210.465 193.128 212.063 196.649 212.7 200.4C213.3 203.343 213.3 206.377 212.7 209.32C212.163 211.881 211.246 214.349 209.98 216.64C208.752 218.869 207.326 220.985 205.72 222.96C204.12 224.96 202.6 226.8 201.18 228.58C199.822 230.255 198.617 232.049 197.58 233.94C196.627 235.619 196.163 237.531 196.24 239.46C196.252 240.357 196.024 241.24 195.58 242.02C195.371 242.388 195.083 242.706 194.738 242.952C194.392 243.197 193.997 243.364 193.58 243.44L184.16 245.22C183.713 245.309 183.252 245.307 182.805 245.214C182.359 245.121 181.935 244.94 181.56 244.68C181.17 244.456 180.84 244.141 180.6 243.761C180.359 243.381 180.215 242.948 180.18 242.5C179.721 239.541 179.871 236.519 180.62 233.62C181.331 231.037 182.373 228.556 183.72 226.24C185.023 224.034 186.515 221.946 188.18 220C189.84 218 191.34 216.2 192.72 214.44C193.989 212.859 195.088 211.15 196 209.34C196.785 207.769 197.031 205.984 196.7 204.26C196.435 202.74 195.802 201.308 194.858 200.088C193.913 198.868 192.685 197.897 191.28 197.26C187.796 195.676 183.882 195.303 180.16 196.2C173.147 197.533 168.647 202.026 166.66 209.68C166.486 210.487 166.174 211.258 165.74 211.96C165.186 212.601 164.404 213.002 163.56 213.08L153.56 214.98C152.87 215.103 152.158 214.967 151.56 214.6C151.246 214.392 150.979 214.121 150.776 213.805C150.573 213.488 150.438 213.132 150.38 212.76C149.948 209.605 150.292 206.392 151.38 203.4C152.513 199.943 154.246 196.714 156.5 193.86C159.028 190.735 162.04 188.034 165.42 185.86C169.064 183.566 173.119 182.003 177.36 181.26ZM195.62 250.76C196.51 250.606 197.424 250.804 198.17 251.311C198.917 251.819 199.436 252.596 199.62 253.48L201.62 264.4C201.712 264.837 201.711 265.289 201.618 265.727C201.525 266.164 201.342 266.577 201.08 266.94C200.835 267.312 200.517 267.631 200.146 267.878C199.775 268.126 199.358 268.296 198.92 268.38L188.26 270.38C187.82 270.471 187.364 270.471 186.924 270.378C186.483 270.285 186.067 270.102 185.7 269.84C185.328 269.594 185.009 269.276 184.762 268.905C184.515 268.534 184.344 268.118 184.26 267.68L182.26 256.76C182.177 256.321 182.183 255.869 182.28 255.432C182.376 254.996 182.56 254.583 182.82 254.22C183.06 253.842 183.376 253.519 183.748 253.271C184.12 253.023 184.54 252.856 184.98 252.78L195.62 250.76Z" fill="#8A8ACA"/>
<path d="M279.001 226.32C281.359 227.628 283.515 229.271 285.401 231.2C287.234 233.007 288.718 235.135 289.781 237.48C290.8 239.722 291.325 242.157 291.321 244.62C291.318 247.245 290.629 249.824 289.321 252.1C288.341 253.924 287.017 255.54 285.421 256.86C283.991 257.97 282.408 258.866 280.721 259.52C279.081 260.161 277.388 260.656 275.661 261L270.781 261.96C269.317 262.241 267.884 262.663 266.501 263.22C265.256 263.682 264.168 264.486 263.361 265.54C262.968 266.024 262.449 266.391 261.861 266.6C261.585 266.703 261.289 266.744 260.995 266.72C260.701 266.696 260.416 266.607 260.161 266.46L254.381 263.22C253.819 262.912 253.402 262.394 253.221 261.78C253.123 261.488 253.093 261.177 253.135 260.872C253.176 260.566 253.288 260.275 253.461 260.02C254.526 258.251 255.942 256.72 257.621 255.52C259.143 254.457 260.797 253.596 262.541 252.96C264.214 252.365 265.933 251.91 267.681 251.6C269.421 251.3 271.041 251 272.561 250.68C273.933 250.393 275.272 249.971 276.561 249.42C277.673 248.929 278.598 248.095 279.201 247.04C279.726 246.112 280.019 245.07 280.054 244.004C280.088 242.938 279.864 241.88 279.401 240.92C278.259 238.538 276.35 236.608 273.981 235.44C271.94 234.26 269.585 233.739 267.238 233.947C264.89 234.154 262.663 235.081 260.861 236.6C260.415 236.962 259.907 237.24 259.361 237.42C258.788 237.515 258.201 237.386 257.721 237.06L251.561 233.62C251.125 233.375 250.797 232.975 250.641 232.5C250.563 232.251 250.539 231.989 250.57 231.73C250.601 231.472 250.686 231.223 250.821 231C251.988 229.14 253.587 227.59 255.481 226.48C257.637 225.178 260.007 224.271 262.481 223.8C265.189 223.269 267.965 223.181 270.701 223.54C273.621 223.924 276.439 224.868 279.001 226.32ZM257.921 271.22C258.192 271.37 258.431 271.573 258.624 271.817C258.816 272.061 258.958 272.341 259.041 272.64C259.129 272.935 259.157 273.244 259.123 273.55C259.089 273.856 258.993 274.152 258.841 274.42L255.101 281.12C254.797 281.665 254.29 282.068 253.691 282.24C253.091 282.413 252.448 282.341 251.901 282.04L245.361 278.38C245.086 278.237 244.845 278.036 244.655 277.791C244.465 277.545 244.33 277.262 244.261 276.96C244.166 276.667 244.133 276.357 244.164 276.051C244.195 275.744 244.289 275.448 244.441 275.18L248.181 268.48C248.333 268.211 248.536 267.976 248.78 267.787C249.024 267.598 249.303 267.459 249.601 267.38C249.895 267.286 250.205 267.256 250.512 267.29C250.819 267.325 251.115 267.423 251.381 267.58L257.921 271.22Z" fill="#8A8ACA"/>
<g opacity="0.2">
<path d="M279.001 226.32C281.359 227.628 283.515 229.271 285.401 231.2C287.234 233.007 288.718 235.135 289.781 237.48C290.8 239.722 291.325 242.157 291.321 244.62C291.318 247.245 290.629 249.824 289.321 252.1C288.341 253.924 287.017 255.54 285.421 256.86C283.991 257.97 282.408 258.866 280.721 259.52C279.081 260.161 277.388 260.656 275.661 261L270.781 261.96C269.317 262.241 267.884 262.663 266.501 263.22C265.256 263.682 264.168 264.486 263.361 265.54C262.968 266.024 262.449 266.391 261.861 266.6C261.585 266.703 261.289 266.744 260.995 266.72C260.701 266.696 260.416 266.607 260.161 266.46L254.381 263.22C253.819 262.912 253.402 262.394 253.221 261.78C253.123 261.488 253.093 261.177 253.135 260.872C253.176 260.566 253.288 260.275 253.461 260.02C254.526 258.251 255.942 256.72 257.621 255.52C259.143 254.457 260.797 253.596 262.541 252.96C264.214 252.365 265.933 251.91 267.681 251.6C269.421 251.3 271.041 251 272.561 250.68C273.933 250.393 275.272 249.971 276.561 249.42C277.673 248.929 278.598 248.095 279.201 247.04C279.726 246.112 280.019 245.07 280.054 244.004C280.088 242.938 279.864 241.88 279.401 240.92C278.259 238.538 276.35 236.608 273.981 235.44C271.94 234.26 269.585 233.739 267.238 233.947C264.89 234.154 262.663 235.081 260.861 236.6C260.415 236.962 259.907 237.24 259.361 237.42C258.788 237.515 258.201 237.386 257.721 237.06L251.561 233.62C251.125 233.375 250.797 232.975 250.641 232.5C250.563 232.251 250.539 231.989 250.57 231.73C250.601 231.472 250.686 231.223 250.821 231C251.988 229.14 253.587 227.59 255.481 226.48C257.637 225.178 260.007 224.271 262.481 223.8C265.189 223.269 267.965 223.181 270.701 223.54C273.621 223.924 276.439 224.868 279.001 226.32ZM257.921 271.22C258.192 271.37 258.431 271.573 258.624 271.817C258.816 272.061 258.958 272.341 259.041 272.64C259.129 272.935 259.157 273.244 259.123 273.55C259.089 273.856 258.993 274.152 258.841 274.42L255.101 281.12C254.797 281.665 254.29 282.068 253.691 282.24C253.091 282.413 252.448 282.341 251.901 282.04L245.361 278.38C245.086 278.237 244.845 278.036 244.655 277.791C244.465 277.545 244.33 277.262 244.261 276.96C244.166 276.667 244.133 276.357 244.164 276.051C244.195 275.744 244.289 275.448 244.441 275.18L248.181 268.48C248.333 268.211 248.536 267.976 248.78 267.787C249.024 267.598 249.303 267.459 249.601 267.38C249.895 267.286 250.205 267.256 250.512 267.29C250.819 267.325 251.115 267.423 251.381 267.58L257.921 271.22Z" fill="black"/>
</g>
<path d="M138.119 299.76C138.386 299.508 138.7 299.313 139.044 299.185C139.387 299.058 139.753 299.002 140.119 299.02C140.495 299.025 140.865 299.105 141.209 299.256C141.552 299.408 141.862 299.626 142.119 299.9L148.279 306.58C148.533 306.852 148.73 307.172 148.859 307.521C148.988 307.87 149.047 308.241 149.032 308.613C149.017 308.985 148.929 309.35 148.772 309.687C148.616 310.025 148.394 310.328 148.119 310.58L141.599 316.58C141.327 316.833 141.007 317.03 140.658 317.159C140.309 317.288 139.938 317.347 139.566 317.332C139.194 317.318 138.829 317.229 138.491 317.073C138.154 316.916 137.851 316.694 137.599 316.42L131.439 309.74C131.183 309.468 130.984 309.149 130.853 308.8C130.723 308.45 130.663 308.078 130.678 307.706C130.693 307.333 130.782 306.967 130.94 306.63C131.098 306.292 131.322 305.989 131.599 305.74L138.119 299.76ZM95.3192 259.46C97.658 257.274 100.298 255.435 103.159 254C105.876 252.626 108.815 251.746 111.839 251.4C114.742 251.079 117.681 251.379 120.459 252.28C123.411 253.287 126.051 255.045 128.119 257.38C129.85 259.138 131.21 261.226 132.119 263.52C132.853 265.532 133.284 267.641 133.399 269.78C133.513 271.861 133.446 273.949 133.199 276.02C132.939 278.02 132.699 280.02 132.479 281.88C132.262 283.631 132.202 285.398 132.299 287.16C132.366 288.743 132.879 290.275 133.779 291.58C134.167 292.177 134.388 292.868 134.419 293.58C134.437 293.93 134.374 294.28 134.235 294.602C134.096 294.925 133.886 295.211 133.619 295.44L127.859 300.78C127.313 301.275 126.596 301.54 125.859 301.52C125.494 301.533 125.13 301.458 124.799 301.302C124.469 301.145 124.18 300.911 123.959 300.62C122.359 298.759 121.148 296.596 120.399 294.26C119.773 292.161 119.423 289.989 119.359 287.8C119.297 285.686 119.417 283.572 119.719 281.48C120.019 279.48 120.259 277.48 120.459 275.68C120.638 274.024 120.638 272.355 120.459 270.7C120.329 269.274 119.731 267.931 118.759 266.88C117.914 265.942 116.853 265.225 115.668 264.79C114.483 264.354 113.21 264.213 111.959 264.38C108.873 264.779 106.005 266.185 103.799 268.38C99.5059 272.38 98.3259 277.453 100.259 283.6C100.496 284.24 100.618 284.917 100.619 285.6C100.57 285.936 100.454 286.26 100.279 286.551C100.104 286.843 99.873 287.097 99.5992 287.3L93.4592 292.98C93.0302 293.394 92.4558 293.624 91.8592 293.62C91.5538 293.614 91.2529 293.544 90.9769 293.413C90.7009 293.282 90.4562 293.093 90.2592 292.86C88.559 290.892 87.3706 288.536 86.7993 286C86.1206 283.097 85.9648 280.097 86.3392 277.14C86.7499 273.898 87.682 270.744 89.0992 267.8C90.6088 264.64 92.7218 261.807 95.3192 259.46Z" fill="#8A8ACA"/>
<g opacity="0.6">
<path d="M138.119 299.759C138.386 299.508 138.7 299.312 139.044 299.185C139.387 299.058 139.753 299.002 140.119 299.019C140.495 299.025 140.865 299.105 141.209 299.256C141.552 299.407 141.862 299.626 142.119 299.899L148.279 306.579C148.533 306.852 148.73 307.172 148.859 307.521C148.988 307.87 149.047 308.241 149.032 308.613C149.017 308.985 148.929 309.35 148.772 309.687C148.616 310.025 148.394 310.328 148.119 310.579L141.599 316.579C141.327 316.833 141.007 317.03 140.658 317.159C140.309 317.288 139.938 317.347 139.566 317.332C139.194 317.317 138.829 317.229 138.491 317.072C138.154 316.916 137.851 316.694 137.599 316.419L131.439 309.739C131.183 309.468 130.984 309.149 130.853 308.799C130.723 308.45 130.663 308.078 130.678 307.706C130.693 307.333 130.782 306.967 130.94 306.63C131.098 306.292 131.322 305.989 131.599 305.739L138.119 299.759ZM95.3192 259.459C97.658 257.274 100.298 255.435 103.159 253.999C105.876 252.626 108.815 251.746 111.839 251.399C114.742 251.079 117.681 251.379 120.459 252.279C123.411 253.287 126.051 255.044 128.119 257.379C129.85 259.138 131.21 261.226 132.119 263.519C132.853 265.531 133.284 267.641 133.399 269.779C133.513 271.861 133.446 273.949 133.199 276.019C132.939 278.019 132.699 280.019 132.479 281.879C132.262 283.631 132.202 285.398 132.299 287.159C132.366 288.743 132.879 290.275 133.779 291.579C134.167 292.177 134.388 292.868 134.419 293.579C134.437 293.93 134.374 294.28 134.235 294.602C134.096 294.925 133.886 295.211 133.619 295.439L127.859 300.779C127.313 301.275 126.596 301.54 125.859 301.519C125.494 301.533 125.13 301.458 124.799 301.301C124.469 301.145 124.18 300.911 123.959 300.619C122.359 298.759 121.148 296.596 120.399 294.259C119.773 292.161 119.423 289.989 119.359 287.799C119.297 285.686 119.417 283.572 119.719 281.479C120.019 279.479 120.259 277.479 120.459 275.679C120.638 274.024 120.638 272.355 120.459 270.699C120.329 269.274 119.731 267.931 118.759 266.879C117.914 265.942 116.853 265.225 115.668 264.79C114.483 264.354 113.21 264.213 111.959 264.379C108.873 264.779 106.005 266.185 103.799 268.379C99.5059 272.379 98.3259 277.453 100.259 283.599C100.496 284.24 100.618 284.917 100.619 285.599C100.57 285.936 100.454 286.26 100.279 286.551C100.104 286.843 99.873 287.097 99.5992 287.299L93.4592 292.979C93.0302 293.394 92.4558 293.624 91.8592 293.619C91.5538 293.614 91.2529 293.544 90.9769 293.413C90.7009 293.282 90.4562 293.093 90.2592 292.859C88.559 290.892 87.3706 288.536 86.7993 285.999C86.1206 283.097 85.9648 280.097 86.3392 277.139C86.7499 273.898 87.682 270.744 89.0992 267.799C90.6088 264.64 92.7218 261.807 95.3192 259.459Z" fill="white"/>
</g>
<path d="M545.383 439.3C539.683 436.04 515.683 422.161 507.523 417.441C505.903 416.521 504.883 415.92 504.803 415.86C500.746 413.599 496.006 412.888 491.463 413.86C487.565 414.652 483.83 416.106 480.423 418.161C479.863 418.481 479.303 418.861 478.763 419.221C469.543 425.041 461.623 434.2 455.023 446.8C448.303 459.074 444.698 472.809 444.523 486.8C444.523 500.054 448.057 509.354 455.123 514.701C455.839 515.233 456.587 515.721 457.363 516.16C463.983 519.92 497.183 539.161 497.923 539.581H498.103C497.287 539.133 496.504 538.625 495.763 538.061C488.683 532.727 485.15 523.434 485.163 510.181C485.338 496.189 488.943 482.454 495.663 470.181C502.637 456.847 511.097 447.294 521.043 441.52C530.51 436.054 538.683 435.341 545.563 439.381L545.383 439.3Z" fill="#34A00A"/>
<path opacity="0.4" d="M545.556 439.421C538.676 435.421 530.503 436.127 521.036 441.541C511.796 446.874 503.829 455.541 497.136 467.541L456.496 444.001C462.776 432.781 470.196 424.521 478.736 419.141C479.276 418.801 479.836 418.401 480.396 418.081C483.8 416.024 487.535 414.575 491.436 413.801C495.978 412.817 500.722 413.528 504.776 415.801L507.496 417.381C515.656 422.081 539.656 435.961 545.356 439.221L545.556 439.421Z" fill="black"/>
<path opacity="0.3" d="M498.103 539.52H497.923C497.183 539.1 463.923 519.86 457.363 516.1C456.587 515.661 455.839 515.173 455.123 514.64C448.057 509.307 444.523 500.013 444.523 486.76C444.693 472.768 448.298 459.032 455.023 446.76C455.503 445.82 456.003 444.9 456.523 444.02L497.143 467.48C496.643 468.36 496.143 469.28 495.663 470.2C488.943 482.473 485.338 496.209 485.163 510.2C485.163 523.453 488.697 532.747 495.763 538.08C496.507 538.617 497.289 539.098 498.103 539.52Z" fill="black"/>
<path d="M527.662 96.1005C547.382 84.7005 564.169 79.8539 578.022 81.5605C583.66 82.2341 589.103 84.0439 594.022 86.8805C593.884 86.8079 593.751 86.7278 593.622 86.6405C588.862 83.9605 560.182 67.4205 553.622 63.5605C548.618 60.6358 543.06 58.7833 537.302 58.1205C523.435 56.4272 506.642 61.2672 486.922 72.6405C456.255 90.3339 431.589 116.334 412.922 150.641C394.255 184.947 385.022 219.967 385.222 255.701L425.842 279.161C425.562 243.401 434.795 208.374 453.542 174.081C472.289 139.787 496.995 113.794 527.662 96.1005Z" fill="#34A00A"/>
<path opacity="0.2" d="M593.696 86.6603C588.849 83.9605 583.524 82.2284 578.016 81.5603C564.176 79.8536 547.39 84.7003 527.656 96.1003C496.99 113.78 472.323 139.78 453.656 174.1C452.876 175.52 452.116 176.96 451.376 178.38L410.656 154.88C411.396 153.46 412.156 152.02 412.936 150.6C431.683 116.32 456.35 90.3203 486.936 72.6003C506.683 61.2136 523.476 56.3736 537.316 58.0803C543.076 58.7498 548.633 60.6091 553.636 63.5403C560.256 67.4403 588.936 84.0003 593.696 86.6603Z" fill="black"/>
<path opacity="0.3" d="M451.284 178.34C434.07 211.26 425.597 244.854 425.864 279.12L385.244 255.66C384.99 221.38 393.464 187.787 410.664 154.88L451.284 178.34Z" fill="black"/>
<path d="M555.259 162.581C547.885 158.661 538.039 160.194 525.719 167.181C525.303 174.511 523.792 181.737 521.239 188.621C518.159 196.914 509.199 214.021 494.359 239.941C478.985 266.741 467.865 292.334 460.999 316.721C454.188 340.798 450.729 365.699 450.719 390.721L450.919 403.181L478.639 419.181L491.559 426.641L491.339 414.161V414.001C491.383 389.06 494.842 364.243 501.619 340.241C508.485 315.854 519.612 290.267 534.999 263.481C549.825 237.561 558.779 220.447 561.859 212.141C564.934 203.928 566.506 195.23 566.499 186.461C566.499 174.527 562.752 166.567 555.259 162.581Z" fill="#34A00A"/>
<path opacity="0.3" d="M557.879 221.12C553.292 230.667 545.665 244.76 534.999 263.4C519.599 290.2 508.472 315.794 501.619 340.18C494.834 364.201 491.376 389.039 491.339 414V414.32L491.559 426.8L478.639 419.36L450.919 403.36L450.719 390.88C450.73 365.858 454.19 340.958 460.999 316.88C467.865 292.494 478.985 266.9 494.359 240.1C505.025 221.434 512.665 207.347 517.279 197.84L557.879 221.12Z" fill="black"/>
<path opacity="0.4" d="M566.497 186.461C566.502 195.202 564.937 203.872 561.877 212.061C561.017 214.401 559.677 217.421 557.877 221.121L517.277 197.681C519.051 193.974 520.384 190.954 521.277 188.621C523.831 181.737 525.341 174.511 525.757 167.181C538.077 160.194 547.924 158.661 555.297 162.581C562.671 166.501 566.404 174.461 566.497 186.461Z" fill="black"/>
<path d="M480.838 247.36L425.858 279.12C425.578 243.36 434.811 208.334 453.558 174.04C472.304 139.747 496.971 113.747 527.558 96.0403C547.278 84.6403 564.064 79.7937 577.918 81.5003C591.771 83.207 602.858 90.8003 611.178 104.28C619.511 117.76 623.678 134.574 623.678 154.72C623.595 166.417 622.254 178.071 619.678 189.48C616.561 203.129 612.354 216.505 607.098 229.48C603.738 237.96 595.691 253.614 582.958 276.44C570.784 298.2 563.158 313.007 560.078 320.86C556.659 330.183 554.121 339.805 552.498 349.6C550.076 364.242 548.739 379.042 548.498 393.88L491.638 426.72L491.418 414.24C491.429 389.219 494.889 364.318 501.698 340.24C508.564 315.854 519.691 290.267 535.078 263.48C549.904 237.56 558.858 220.447 561.938 212.14C564.986 203.923 566.531 195.225 566.498 186.46C566.498 174.46 562.758 166.5 555.278 162.58C547.798 158.66 537.758 160.3 525.158 167.5C512.278 174.94 501.711 186.1 493.458 200.98C485.386 215.12 481.043 231.08 480.838 247.36Z" fill="#34A00A"/>
<path d="M520.943 441.66C531.143 435.753 539.85 435.387 547.063 440.56C554.276 445.733 557.883 454.94 557.883 468.18C557.665 482.248 553.99 496.047 547.183 508.36C540.063 521.893 531.456 531.573 521.363 537.4C511.27 543.227 502.696 543.467 495.643 538.12C488.576 532.787 485.043 523.487 485.043 510.22C485.217 496.228 488.823 482.493 495.543 470.22C502.543 456.913 511.01 447.393 520.943 441.66Z" fill="#34A00A"/>
<path d="M338.5 621H663.5C671.232 621 677.5 627.268 677.5 635V675H324.5V635L324.505 634.639C324.697 627.074 330.889 621 338.5 621Z" fill="white"/>
<path d="M338.5 621H663.5C671.232 621 677.5 627.268 677.5 635V675H324.5V635L324.505 634.639C324.697 627.074 330.889 621 338.5 621Z" stroke="#E9EAEC" stroke-width="2"/>
<path d="M345.835 657L340.994 639.545H343.764L347.165 653.062H347.327L350.864 639.545H353.608L357.145 653.071H357.307L360.699 639.545H363.477L358.628 657H355.977L352.304 643.926H352.168L348.494 657H345.835ZM367.922 649.227V657H365.374V639.545H367.888V646.04H368.05C368.357 645.335 368.826 644.776 369.456 644.361C370.087 643.946 370.911 643.739 371.928 643.739C372.826 643.739 373.61 643.923 374.28 644.293C374.956 644.662 375.479 645.213 375.848 645.946C376.223 646.673 376.411 647.582 376.411 648.673V657H373.863V648.98C373.863 648.02 373.615 647.276 373.121 646.747C372.627 646.213 371.939 645.946 371.059 645.946C370.456 645.946 369.917 646.074 369.439 646.33C368.968 646.585 368.596 646.96 368.323 647.455C368.056 647.943 367.922 648.534 367.922 649.227ZM379.512 657V643.909H382.06V657H379.512ZM380.798 641.889C380.355 641.889 379.975 641.741 379.656 641.446C379.344 641.145 379.188 640.787 379.188 640.372C379.188 639.952 379.344 639.594 379.656 639.298C379.975 638.997 380.355 638.847 380.798 638.847C381.242 638.847 381.619 638.997 381.932 639.298C382.25 639.594 382.409 639.952 382.409 640.372C382.409 640.787 382.25 641.145 381.932 641.446C381.619 641.741 381.242 641.889 380.798 641.889ZM390.702 657.264C389.435 657.264 388.344 656.977 387.43 656.403C386.52 655.824 385.822 655.026 385.333 654.009C384.844 652.991 384.6 651.827 384.6 650.514C384.6 649.185 384.85 648.011 385.35 646.994C385.85 645.972 386.555 645.173 387.464 644.599C388.373 644.026 389.444 643.739 390.677 643.739C391.671 643.739 392.557 643.923 393.336 644.293C394.114 644.656 394.742 645.168 395.219 645.827C395.702 646.486 395.989 647.256 396.08 648.136H393.6C393.464 647.523 393.151 646.994 392.662 646.551C392.18 646.108 391.532 645.886 390.719 645.886C390.009 645.886 389.387 646.074 388.853 646.449C388.324 646.818 387.912 647.347 387.617 648.034C387.322 648.716 387.174 649.523 387.174 650.455C387.174 651.409 387.319 652.233 387.609 652.926C387.898 653.619 388.307 654.156 388.836 654.537C389.37 654.918 389.998 655.108 390.719 655.108C391.202 655.108 391.64 655.02 392.032 654.844C392.43 654.662 392.762 654.403 393.029 654.068C393.302 653.733 393.492 653.33 393.6 652.858H396.08C395.989 653.705 395.714 654.46 395.253 655.125C394.793 655.79 394.177 656.312 393.404 656.693C392.637 657.074 391.736 657.264 390.702 657.264ZM401.054 649.227V657H398.505V639.545H401.019V646.04H401.181C401.488 645.335 401.957 644.776 402.588 644.361C403.218 643.946 404.042 643.739 405.059 643.739C405.957 643.739 406.741 643.923 407.412 644.293C408.088 644.662 408.61 645.213 408.98 645.946C409.355 646.673 409.542 647.582 409.542 648.673V657H406.994V648.98C406.994 648.02 406.747 647.276 406.252 646.747C405.758 646.213 405.071 645.946 404.19 645.946C403.588 645.946 403.048 646.074 402.571 646.33C402.099 646.585 401.727 646.96 401.454 647.455C401.187 647.943 401.054 648.534 401.054 649.227ZM424.209 657.264C422.941 657.264 421.851 656.977 420.936 656.403C420.027 655.824 419.328 655.026 418.839 654.009C418.351 652.991 418.106 651.827 418.106 650.514C418.106 649.185 418.356 648.011 418.856 646.994C419.356 645.972 420.061 645.173 420.97 644.599C421.879 644.026 422.95 643.739 424.183 643.739C425.177 643.739 426.064 643.923 426.842 644.293C427.62 644.656 428.248 645.168 428.726 645.827C429.209 646.486 429.495 647.256 429.586 648.136H427.106C426.97 647.523 426.657 646.994 426.169 646.551C425.686 646.108 425.038 645.886 424.226 645.886C423.515 645.886 422.893 646.074 422.359 646.449C421.831 646.818 421.419 647.347 421.123 648.034C420.828 648.716 420.68 649.523 420.68 650.455C420.68 651.409 420.825 652.233 421.115 652.926C421.405 653.619 421.814 654.156 422.342 654.537C422.876 654.918 423.504 655.108 424.226 655.108C424.709 655.108 425.146 655.02 425.538 654.844C425.936 654.662 426.268 654.403 426.535 654.068C426.808 653.733 426.998 653.33 427.106 652.858H429.586C429.495 653.705 429.22 654.46 428.76 655.125C428.299 655.79 427.683 656.312 426.91 656.693C426.143 657.074 425.243 657.264 424.209 657.264ZM435.821 657.29C434.992 657.29 434.242 657.136 433.571 656.83C432.901 656.517 432.369 656.065 431.977 655.474C431.591 654.884 431.398 654.159 431.398 653.301C431.398 652.562 431.54 651.955 431.824 651.477C432.108 651 432.492 650.622 432.975 650.344C433.458 650.065 433.997 649.855 434.594 649.713C435.19 649.571 435.798 649.463 436.418 649.389C437.202 649.298 437.838 649.224 438.327 649.168C438.815 649.105 439.171 649.006 439.392 648.869C439.614 648.733 439.725 648.511 439.725 648.205V648.145C439.725 647.401 439.514 646.824 439.094 646.415C438.679 646.006 438.06 645.801 437.236 645.801C436.378 645.801 435.702 645.991 435.208 646.372C434.719 646.747 434.381 647.165 434.193 647.625L431.798 647.08C432.083 646.284 432.497 645.642 433.043 645.153C433.594 644.659 434.227 644.301 434.943 644.08C435.659 643.852 436.412 643.739 437.202 643.739C437.725 643.739 438.279 643.801 438.864 643.926C439.455 644.045 440.006 644.267 440.517 644.591C441.034 644.915 441.458 645.378 441.787 645.98C442.117 646.577 442.281 647.352 442.281 648.307V657H439.793V655.21H439.69C439.526 655.54 439.279 655.864 438.949 656.182C438.619 656.5 438.196 656.764 437.679 656.974C437.162 657.185 436.543 657.29 435.821 657.29ZM436.375 655.244C437.08 655.244 437.682 655.105 438.182 654.827C438.688 654.548 439.071 654.185 439.333 653.736C439.6 653.281 439.733 652.795 439.733 652.278V650.591C439.642 650.682 439.466 650.767 439.205 650.847C438.949 650.92 438.656 650.986 438.327 651.043C437.997 651.094 437.676 651.142 437.364 651.188C437.051 651.227 436.79 651.261 436.58 651.29C436.085 651.352 435.634 651.457 435.225 651.605C434.821 651.753 434.497 651.966 434.253 652.244C434.014 652.517 433.895 652.881 433.895 653.335C433.895 653.966 434.128 654.443 434.594 654.767C435.06 655.085 435.654 655.244 436.375 655.244ZM445.376 657V643.909H447.839V645.989H447.975C448.214 645.284 448.634 644.73 449.236 644.327C449.844 643.918 450.532 643.713 451.299 643.713C451.458 643.713 451.645 643.719 451.861 643.73C452.083 643.741 452.256 643.756 452.381 643.773V646.21C452.279 646.182 452.097 646.151 451.836 646.116C451.574 646.077 451.313 646.057 451.052 646.057C450.449 646.057 449.912 646.185 449.441 646.44C448.975 646.69 448.606 647.04 448.333 647.489C448.06 647.932 447.924 648.437 447.924 649.006V657H445.376ZM459.46 657.264C458.17 657.264 457.059 656.989 456.127 656.438C455.201 655.881 454.485 655.099 453.98 654.094C453.48 653.082 453.23 651.898 453.23 650.54C453.23 649.199 453.48 648.017 453.98 646.994C454.485 645.972 455.19 645.173 456.093 644.599C457.002 644.026 458.065 643.739 459.281 643.739C460.019 643.739 460.735 643.861 461.429 644.105C462.122 644.349 462.744 644.733 463.295 645.256C463.846 645.778 464.281 646.457 464.599 647.293C464.917 648.122 465.076 649.131 465.076 650.318V651.222H454.67V649.312H462.579C462.579 648.642 462.443 648.048 462.17 647.531C461.897 647.009 461.514 646.597 461.019 646.295C460.531 645.994 459.957 645.844 459.298 645.844C458.582 645.844 457.957 646.02 457.423 646.372C456.894 646.719 456.485 647.173 456.196 647.736C455.912 648.293 455.769 648.898 455.769 649.551V651.043C455.769 651.918 455.923 652.662 456.23 653.276C456.542 653.889 456.977 654.358 457.534 654.682C458.09 655 458.741 655.159 459.485 655.159C459.968 655.159 460.409 655.091 460.806 654.955C461.204 654.812 461.548 654.602 461.838 654.324C462.127 654.045 462.349 653.702 462.502 653.293L464.914 653.727C464.721 654.437 464.375 655.06 463.875 655.594C463.38 656.122 462.758 656.534 462.008 656.83C461.264 657.119 460.414 657.264 459.46 657.264ZM473.246 657.264C471.956 657.264 470.845 656.989 469.913 656.438C468.987 655.881 468.271 655.099 467.766 654.094C467.266 653.082 467.016 651.898 467.016 650.54C467.016 649.199 467.266 648.017 467.766 646.994C468.271 645.972 468.976 645.173 469.879 644.599C470.788 644.026 471.851 643.739 473.067 643.739C473.805 643.739 474.521 643.861 475.214 644.105C475.908 644.349 476.53 644.733 477.081 645.256C477.632 645.778 478.067 646.457 478.385 647.293C478.703 648.122 478.862 649.131 478.862 650.318V651.222H468.456V649.312H476.365C476.365 648.642 476.229 648.048 475.956 647.531C475.683 647.009 475.3 646.597 474.805 646.295C474.317 645.994 473.743 645.844 473.084 645.844C472.368 645.844 471.743 646.02 471.209 646.372C470.68 646.719 470.271 647.173 469.982 647.736C469.697 648.293 469.555 648.898 469.555 649.551V651.043C469.555 651.918 469.709 652.662 470.016 653.276C470.328 653.889 470.763 654.358 471.32 654.682C471.876 655 472.527 655.159 473.271 655.159C473.754 655.159 474.195 655.091 474.592 654.955C474.99 654.812 475.334 654.602 475.624 654.324C475.913 654.045 476.135 653.702 476.288 653.293L478.7 653.727C478.507 654.437 478.161 655.06 477.661 655.594C477.166 656.122 476.544 656.534 475.794 656.83C475.05 657.119 474.2 657.264 473.246 657.264ZM481.39 657V643.909H483.853V645.989H483.989C484.228 645.284 484.648 644.73 485.25 644.327C485.858 643.918 486.546 643.713 487.313 643.713C487.472 643.713 487.66 643.719 487.875 643.73C488.097 643.741 488.27 643.756 488.395 643.773V646.21C488.293 646.182 488.111 646.151 487.85 646.116C487.588 646.077 487.327 646.057 487.066 646.057C486.463 646.057 485.927 646.185 485.455 646.44C484.989 646.69 484.62 647.04 484.347 647.489C484.074 647.932 483.938 648.437 483.938 649.006V657H481.39ZM496.352 657V643.909H498.9V657H496.352ZM497.639 641.889C497.196 641.889 496.815 641.741 496.497 641.446C496.185 641.145 496.028 640.787 496.028 640.372C496.028 639.952 496.185 639.594 496.497 639.298C496.815 638.997 497.196 638.847 497.639 638.847C498.082 638.847 498.46 638.997 498.773 639.298C499.091 639.594 499.25 639.952 499.25 640.372C499.25 640.787 499.091 641.145 498.773 641.446C498.46 641.741 498.082 641.889 497.639 641.889ZM511.838 647.105L509.529 647.514C509.432 647.219 509.279 646.937 509.068 646.67C508.864 646.403 508.586 646.185 508.233 646.014C507.881 645.844 507.441 645.759 506.912 645.759C506.191 645.759 505.588 645.92 505.105 646.244C504.622 646.562 504.381 646.974 504.381 647.48C504.381 647.918 504.543 648.27 504.867 648.537C505.191 648.804 505.713 649.023 506.435 649.193L508.514 649.67C509.719 649.949 510.617 650.378 511.208 650.957C511.799 651.537 512.094 652.29 512.094 653.216C512.094 654 511.867 654.699 511.412 655.312C510.963 655.92 510.336 656.398 509.529 656.744C508.728 657.091 507.799 657.264 506.742 657.264C505.276 657.264 504.08 656.952 503.154 656.327C502.228 655.696 501.659 654.801 501.449 653.642L503.912 653.267C504.066 653.909 504.381 654.395 504.858 654.724C505.336 655.048 505.958 655.21 506.725 655.21C507.56 655.21 508.228 655.037 508.728 654.69C509.228 654.338 509.478 653.909 509.478 653.403C509.478 652.994 509.324 652.651 509.017 652.372C508.716 652.094 508.253 651.884 507.628 651.741L505.412 651.256C504.191 650.977 503.287 650.534 502.702 649.926C502.122 649.318 501.833 648.548 501.833 647.616C501.833 646.844 502.049 646.168 502.48 645.588C502.912 645.009 503.509 644.557 504.27 644.233C505.032 643.903 505.904 643.739 506.887 643.739C508.301 643.739 509.415 644.045 510.228 644.659C511.04 645.267 511.577 646.082 511.838 647.105ZM520.647 657V643.909H523.111V645.989H523.247C523.486 645.284 523.906 644.73 524.508 644.327C525.116 643.918 525.804 643.713 526.571 643.713C526.73 643.713 526.917 643.719 527.133 643.73C527.355 643.741 527.528 643.756 527.653 643.773V646.21C527.551 646.182 527.369 646.151 527.108 646.116C526.846 646.077 526.585 646.057 526.324 646.057C525.721 646.057 525.184 646.185 524.713 646.44C524.247 646.69 523.878 647.04 523.605 647.489C523.332 647.932 523.196 648.437 523.196 649.006V657H520.647ZM529.558 657V643.909H532.107V657H529.558ZM530.845 641.889C530.402 641.889 530.021 641.741 529.703 641.446C529.391 641.145 529.235 640.787 529.235 640.372C529.235 639.952 529.391 639.594 529.703 639.298C530.021 638.997 530.402 638.847 530.845 638.847C531.288 638.847 531.666 638.997 531.979 639.298C532.297 639.594 532.456 639.952 532.456 640.372C532.456 640.787 532.297 641.145 531.979 641.446C531.666 641.741 531.288 641.889 530.845 641.889ZM540.724 662.182C539.684 662.182 538.789 662.045 538.039 661.773C537.295 661.5 536.687 661.139 536.215 660.69C535.743 660.241 535.391 659.75 535.158 659.216L537.349 658.312C537.502 658.562 537.707 658.827 537.962 659.105C538.224 659.389 538.576 659.631 539.019 659.83C539.468 660.028 540.045 660.128 540.749 660.128C541.715 660.128 542.513 659.892 543.144 659.42C543.775 658.955 544.09 658.21 544.09 657.188V654.614H543.928C543.775 654.892 543.553 655.202 543.263 655.543C542.979 655.884 542.587 656.179 542.087 656.429C541.587 656.679 540.937 656.804 540.136 656.804C539.101 656.804 538.17 656.562 537.34 656.08C536.516 655.591 535.863 654.872 535.38 653.923C534.903 652.969 534.664 651.795 534.664 650.403C534.664 649.011 534.9 647.818 535.371 646.824C535.849 645.83 536.502 645.068 537.332 644.54C538.161 644.006 539.101 643.739 540.153 643.739C540.965 643.739 541.621 643.875 542.121 644.148C542.621 644.415 543.011 644.727 543.289 645.085C543.573 645.443 543.792 645.759 543.945 646.031H544.133V643.909H546.63V657.29C546.63 658.415 546.368 659.338 545.846 660.06C545.323 660.781 544.616 661.315 543.724 661.662C542.837 662.009 541.837 662.182 540.724 662.182ZM540.698 654.69C541.431 654.69 542.05 654.52 542.556 654.179C543.067 653.832 543.454 653.338 543.715 652.696C543.982 652.048 544.116 651.273 544.116 650.369C544.116 649.489 543.985 648.713 543.724 648.043C543.462 647.372 543.079 646.849 542.573 646.474C542.067 646.094 541.442 645.903 540.698 645.903C539.931 645.903 539.292 646.102 538.78 646.5C538.269 646.892 537.883 647.426 537.621 648.102C537.366 648.778 537.238 649.534 537.238 650.369C537.238 651.227 537.368 651.98 537.63 652.628C537.891 653.276 538.278 653.781 538.789 654.145C539.306 654.509 539.942 654.69 540.698 654.69ZM552.296 649.227V657H549.747V639.545H552.262V646.04H552.424C552.73 645.335 553.199 644.776 553.83 644.361C554.461 643.946 555.284 643.739 556.301 643.739C557.199 643.739 557.983 643.923 558.654 644.293C559.33 644.662 559.853 645.213 560.222 645.946C560.597 646.673 560.784 647.582 560.784 648.673V657H558.236V648.98C558.236 648.02 557.989 647.276 557.495 646.747C557 646.213 556.313 645.946 555.432 645.946C554.83 645.946 554.29 646.074 553.813 646.33C553.341 646.585 552.969 646.96 552.696 647.455C552.429 647.943 552.296 648.534 552.296 649.227ZM569.996 643.909V645.955H562.845V643.909H569.996ZM564.763 640.773H567.311V653.156C567.311 653.651 567.385 654.023 567.533 654.273C567.68 654.517 567.871 654.685 568.104 654.776C568.342 654.861 568.601 654.903 568.879 654.903C569.084 654.903 569.263 654.889 569.416 654.861C569.57 654.832 569.689 654.81 569.774 654.793L570.234 656.898C570.087 656.955 569.876 657.011 569.604 657.068C569.331 657.131 568.99 657.165 568.581 657.17C567.911 657.182 567.286 657.062 566.706 656.812C566.126 656.562 565.658 656.176 565.3 655.653C564.942 655.131 564.763 654.474 564.763 653.685V640.773ZM584.796 643.909V645.955H577.399V643.909H584.796ZM579.427 657V642.392C579.427 641.574 579.606 640.895 579.964 640.355C580.322 639.81 580.796 639.403 581.387 639.136C581.978 638.864 582.62 638.727 583.313 638.727C583.825 638.727 584.262 638.77 584.626 638.855C584.989 638.935 585.259 639.009 585.436 639.077L584.839 641.139C584.72 641.105 584.566 641.065 584.379 641.02C584.191 640.969 583.964 640.943 583.697 640.943C583.078 640.943 582.634 641.097 582.367 641.403C582.106 641.71 581.975 642.153 581.975 642.733V657H579.427ZM592.124 657.264C590.897 657.264 589.826 656.983 588.911 656.42C587.996 655.858 587.286 655.071 586.78 654.06C586.275 653.048 586.022 651.866 586.022 650.514C586.022 649.156 586.275 647.969 586.78 646.952C587.286 645.935 587.996 645.145 588.911 644.582C589.826 644.02 590.897 643.739 592.124 643.739C593.351 643.739 594.422 644.02 595.337 644.582C596.252 645.145 596.962 645.935 597.468 646.952C597.974 647.969 598.226 649.156 598.226 650.514C598.226 651.866 597.974 653.048 597.468 654.06C596.962 655.071 596.252 655.858 595.337 656.42C594.422 656.983 593.351 657.264 592.124 657.264ZM592.133 655.125C592.928 655.125 593.587 654.915 594.11 654.494C594.633 654.074 595.019 653.514 595.269 652.815C595.525 652.116 595.653 651.347 595.653 650.506C595.653 649.67 595.525 648.903 595.269 648.205C595.019 647.5 594.633 646.935 594.11 646.509C593.587 646.082 592.928 645.869 592.133 645.869C591.332 645.869 590.667 646.082 590.138 646.509C589.616 646.935 589.226 647.5 588.971 648.205C588.721 648.903 588.596 649.67 588.596 650.506C588.596 651.347 588.721 652.116 588.971 652.815C589.226 653.514 589.616 654.074 590.138 654.494C590.667 654.915 591.332 655.125 592.133 655.125ZM600.771 657V643.909H603.234V645.989H603.37C603.609 645.284 604.029 644.73 604.632 644.327C605.24 643.918 605.927 643.713 606.694 643.713C606.853 643.713 607.041 643.719 607.257 643.73C607.478 643.741 607.652 643.756 607.777 643.773V646.21C607.674 646.182 607.492 646.151 607.231 646.116C606.97 646.077 606.708 646.057 606.447 646.057C605.845 646.057 605.308 646.185 604.836 646.44C604.37 646.69 604.001 647.04 603.728 647.489C603.456 647.932 603.319 648.437 603.319 649.006V657H600.771ZM615.733 657V643.909H618.179V646.04H618.341C618.614 645.318 619.06 644.756 619.679 644.352C620.299 643.943 621.04 643.739 621.904 643.739C622.779 643.739 623.512 643.943 624.103 644.352C624.699 644.761 625.14 645.324 625.424 646.04H625.56C625.873 645.341 626.37 644.784 627.052 644.369C627.733 643.949 628.546 643.739 629.489 643.739C630.677 643.739 631.645 644.111 632.395 644.855C633.151 645.599 633.529 646.722 633.529 648.222V657H630.981V648.46C630.981 647.574 630.739 646.932 630.256 646.534C629.773 646.136 629.196 645.938 628.526 645.938C627.696 645.938 627.052 646.193 626.591 646.705C626.131 647.21 625.901 647.861 625.901 648.656V657H623.361V648.298C623.361 647.588 623.14 647.017 622.696 646.585C622.253 646.153 621.677 645.938 620.966 645.938C620.483 645.938 620.037 646.065 619.628 646.321C619.225 646.571 618.898 646.92 618.648 647.369C618.404 647.818 618.282 648.338 618.282 648.929V657H615.733ZM642.286 657.264C640.997 657.264 639.886 656.989 638.954 656.438C638.028 655.881 637.312 655.099 636.806 654.094C636.306 653.082 636.056 651.898 636.056 650.54C636.056 649.199 636.306 648.017 636.806 646.994C637.312 645.972 638.016 645.173 638.92 644.599C639.829 644.026 640.891 643.739 642.107 643.739C642.846 643.739 643.562 643.861 644.255 644.105C644.948 644.349 645.57 644.733 646.122 645.256C646.673 645.778 647.107 646.457 647.426 647.293C647.744 648.122 647.903 649.131 647.903 650.318V651.222H637.497V649.312H645.406C645.406 648.642 645.269 648.048 644.997 647.531C644.724 647.009 644.34 646.597 643.846 646.295C643.357 645.994 642.784 645.844 642.124 645.844C641.409 645.844 640.784 646.02 640.249 646.372C639.721 646.719 639.312 647.173 639.022 647.736C638.738 648.293 638.596 648.898 638.596 649.551V651.043C638.596 651.918 638.749 652.662 639.056 653.276C639.369 653.889 639.803 654.358 640.36 654.682C640.917 655 641.568 655.159 642.312 655.159C642.795 655.159 643.235 655.091 643.633 654.955C644.031 654.812 644.374 654.602 644.664 654.324C644.954 654.045 645.176 653.702 645.329 653.293L647.741 653.727C647.548 654.437 647.201 655.06 646.701 655.594C646.207 656.122 645.585 656.534 644.835 656.83C644.09 657.119 643.241 657.264 642.286 657.264ZM653.217 651.98V651.818C653.229 650.761 653.334 649.92 653.533 649.295C653.737 648.67 654.027 648.165 654.402 647.778C654.777 647.392 655.229 647.04 655.757 646.722C656.098 646.506 656.405 646.264 656.677 645.997C656.95 645.73 657.166 645.423 657.325 645.077C657.484 644.73 657.564 644.347 657.564 643.926C657.564 643.42 657.444 642.983 657.206 642.614C656.967 642.244 656.649 641.96 656.251 641.761C655.859 641.557 655.422 641.455 654.939 641.455C654.501 641.455 654.084 641.545 653.686 641.727C653.288 641.909 652.959 642.193 652.697 642.58C652.436 642.96 652.285 643.452 652.246 644.054H649.655C649.694 643.031 649.953 642.168 650.43 641.463C650.908 640.753 651.538 640.216 652.322 639.852C653.112 639.489 653.984 639.307 654.939 639.307C655.984 639.307 656.899 639.503 657.683 639.895C658.467 640.281 659.075 640.824 659.507 641.523C659.944 642.216 660.163 643.026 660.163 643.952C660.163 644.588 660.064 645.162 659.865 645.673C659.666 646.179 659.382 646.631 659.013 647.028C658.649 647.426 658.212 647.778 657.7 648.085C657.217 648.386 656.825 648.699 656.524 649.023C656.229 649.347 656.013 649.73 655.876 650.173C655.74 650.616 655.666 651.165 655.655 651.818V651.98H653.217ZM654.504 657.162C654.038 657.162 653.638 656.997 653.302 656.668C652.967 656.332 652.8 655.929 652.8 655.457C652.8 654.991 652.967 654.594 653.302 654.264C653.638 653.929 654.038 653.761 654.504 653.761C654.964 653.761 655.362 653.929 655.697 654.264C656.038 654.594 656.209 654.991 656.209 655.457C656.209 655.77 656.129 656.057 655.97 656.318C655.817 656.574 655.612 656.778 655.356 656.932C655.101 657.085 654.817 657.162 654.504 657.162Z" fill="black"/>
</svg>
